<svg width="390" height="844" viewBox="0 0 390 844" fill="none" xmlns="http://www.w3.org/2000/svg">
<rect width="390" height="844" fill="white"/>
<path d="M77.3813 189L73.0853 172.2H76.1093L79.0373 183.684L81.9653 172.2H84.6413L87.5693 183.684L90.4853 172.2H93.5093L89.2373 189H85.9133L83.2973 178.824L80.7173 189H77.3813ZM99.1536 189.312C98.0496 189.312 97.0416 189.028 96.1296 188.46C95.2256 187.892 94.5016 187.128 93.9576 186.168C93.4216 185.208 93.1536 184.148 93.1536 182.988C93.1536 182.116 93.3096 181.3 93.6216 180.54C93.9336 179.772 94.3616 179.1 94.9056 178.524C95.4576 177.94 96.0976 177.484 96.8256 177.156C97.5536 176.828 98.3296 176.664 99.1536 176.664C100.09 176.664 100.946 176.864 101.722 177.264C102.506 177.656 103.17 178.196 103.714 178.884C104.258 179.572 104.654 180.356 104.902 181.236C105.15 182.116 105.206 183.036 105.07 183.996H96.2976C96.4096 184.444 96.5936 184.848 96.8496 185.208C97.1056 185.56 97.4296 185.844 97.8216 186.06C98.2136 186.268 98.6576 186.376 99.1536 186.384C99.6656 186.392 100.13 186.272 100.546 186.024C100.97 185.768 101.322 185.424 101.602 184.992L104.59 185.688C104.102 186.752 103.374 187.624 102.406 188.304C101.438 188.976 100.354 189.312 99.1536 189.312ZM96.2016 181.8H102.106C102.018 181.32 101.83 180.888 101.542 180.504C101.262 180.112 100.914 179.8 100.498 179.568C100.082 179.336 99.6336 179.22 99.1536 179.22C98.6736 179.22 98.2296 179.336 97.8216 179.568C97.4136 179.792 97.0656 180.1 96.7776 180.492C96.4976 180.876 96.3056 181.312 96.2016 181.8ZM106.835 189V171H109.763V189H106.835ZM119.9 185.388L122.54 186.816C121.988 187.568 121.296 188.172 120.464 188.628C119.632 189.084 118.724 189.312 117.74 189.312C116.636 189.312 115.628 189.028 114.716 188.46C113.812 187.892 113.088 187.132 112.544 186.18C112.008 185.22 111.74 184.16 111.74 183C111.74 182.12 111.896 181.3 112.208 180.54C112.52 179.772 112.948 179.1 113.492 178.524C114.044 177.94 114.684 177.484 115.412 177.156C116.14 176.828 116.916 176.664 117.74 176.664C118.724 176.664 119.632 176.892 120.464 177.348C121.296 177.804 121.988 178.416 122.54 179.184L119.9 180.6C119.62 180.28 119.288 180.032 118.904 179.856C118.528 179.68 118.14 179.592 117.74 179.592C117.164 179.592 116.644 179.752 116.18 180.072C115.716 180.384 115.348 180.8 115.076 181.32C114.804 181.832 114.668 182.392 114.668 183C114.668 183.6 114.804 184.16 115.076 184.68C115.348 185.192 115.716 185.604 116.18 185.916C116.644 186.228 117.164 186.384 117.74 186.384C118.156 186.384 118.552 186.296 118.928 186.12C119.304 185.936 119.628 185.692 119.9 185.388ZM129.599 189.312C128.495 189.312 127.487 189.028 126.575 188.46C125.671 187.892 124.947 187.132 124.403 186.18C123.867 185.22 123.599 184.16 123.599 183C123.599 182.12 123.755 181.3 124.067 180.54C124.379 179.772 124.807 179.1 125.351 178.524C125.903 177.94 126.543 177.484 127.271 177.156C127.999 176.828 128.775 176.664 129.599 176.664C130.703 176.664 131.707 176.948 132.611 177.516C133.523 178.084 134.247 178.848 134.783 179.808C135.327 180.768 135.599 181.832 135.599 183C135.599 183.872 135.443 184.688 135.131 185.448C134.819 186.208 134.387 186.88 133.835 187.464C133.291 188.04 132.655 188.492 131.927 188.82C131.207 189.148 130.431 189.312 129.599 189.312ZM129.599 186.384C130.183 186.384 130.707 186.228 131.171 185.916C131.635 185.604 131.999 185.192 132.263 184.68C132.535 184.168 132.671 183.608 132.671 183C132.671 182.376 132.531 181.808 132.251 181.296C131.979 180.776 131.607 180.364 131.135 180.06C130.671 179.748 130.159 179.592 129.599 179.592C129.023 179.592 128.503 179.748 128.039 180.06C127.575 180.372 127.207 180.788 126.935 181.308C126.663 181.828 126.527 182.392 126.527 183C126.527 183.632 126.667 184.204 126.947 184.716C127.227 185.228 127.599 185.636 128.063 185.94C128.535 186.236 129.047 186.384 129.599 186.384ZM137.467 189V177H140.395V178.068C140.803 177.636 141.291 177.296 141.859 177.048C142.427 176.792 143.039 176.664 143.695 176.664C144.527 176.664 145.291 176.86 145.987 177.252C146.691 177.644 147.251 178.168 147.667 178.824C148.091 178.168 148.651 177.644 149.347 177.252C150.043 176.86 150.807 176.664 151.639 176.664C152.519 176.664 153.315 176.88 154.027 177.312C154.747 177.736 155.319 178.308 155.743 179.028C156.175 179.74 156.391 180.536 156.391 181.416V189H153.463V182.196C153.463 181.732 153.347 181.308 153.115 180.924C152.891 180.532 152.587 180.22 152.203 179.988C151.827 179.748 151.403 179.628 150.931 179.628C150.459 179.628 150.031 179.744 149.647 179.976C149.271 180.2 148.967 180.504 148.735 180.888C148.503 181.272 148.387 181.708 148.387 182.196V189H145.459V182.196C145.459 181.708 145.347 181.272 145.123 180.888C144.899 180.504 144.595 180.2 144.211 179.976C143.827 179.744 143.399 179.628 142.927 179.628C142.463 179.628 142.039 179.748 141.655 179.988C141.271 180.22 140.963 180.532 140.731 180.924C140.507 181.308 140.395 181.732 140.395 182.196V189H137.467ZM163.841 189.312C162.737 189.312 161.729 189.028 160.817 188.46C159.913 187.892 159.189 187.128 158.645 186.168C158.109 185.208 157.841 184.148 157.841 182.988C157.841 182.116 157.997 181.3 158.309 180.54C158.621 179.772 159.049 179.1 159.593 178.524C160.145 177.94 160.785 177.484 161.513 177.156C162.241 176.828 163.017 176.664 163.841 176.664C164.777 176.664 165.633 176.864 166.409 177.264C167.193 177.656 167.857 178.196 168.401 178.884C168.945 179.572 169.341 180.356 169.589 181.236C169.837 182.116 169.893 183.036 169.757 183.996H160.985C161.097 184.444 161.281 184.848 161.537 185.208C161.793 185.56 162.117 185.844 162.509 186.06C162.901 186.268 163.345 186.376 163.841 186.384C164.353 186.392 164.817 186.272 165.233 186.024C165.657 185.768 166.009 185.424 166.289 184.992L169.277 185.688C168.789 186.752 168.061 187.624 167.093 188.304C166.125 188.976 165.041 189.312 163.841 189.312ZM160.889 181.8H166.793C166.705 181.32 166.517 180.888 166.229 180.504C165.949 180.112 165.601 179.8 165.185 179.568C164.769 179.336 164.321 179.22 163.841 179.22C163.361 179.22 162.917 179.336 162.509 179.568C162.101 179.792 161.753 180.1 161.465 180.492C161.185 180.876 160.993 181.312 160.889 181.8ZM190.476 172.2V175.128H185.34V189H182.412V175.128H177.276V172.2H190.476ZM196.325 189.312C195.221 189.312 194.213 189.028 193.301 188.46C192.397 187.892 191.673 187.132 191.129 186.18C190.593 185.22 190.325 184.16 190.325 183C190.325 182.12 190.481 181.3 190.793 180.54C191.105 179.772 191.533 179.1 192.077 178.524C192.629 177.94 193.269 177.484 193.997 177.156C194.725 176.828 195.501 176.664 196.325 176.664C197.429 176.664 198.433 176.948 199.337 177.516C200.249 178.084 200.973 178.848 201.509 179.808C202.053 180.768 202.325 181.832 202.325 183C202.325 183.872 202.169 184.688 201.857 185.448C201.545 186.208 201.113 186.88 200.561 187.464C200.017 188.04 199.381 188.492 198.653 188.82C197.933 189.148 197.157 189.312 196.325 189.312ZM196.325 186.384C196.909 186.384 197.433 186.228 197.897 185.916C198.361 185.604 198.725 185.192 198.989 184.68C199.261 184.168 199.397 183.608 199.397 183C199.397 182.376 199.257 181.808 198.977 181.296C198.705 180.776 198.333 180.364 197.861 180.06C197.397 179.748 196.885 179.592 196.325 179.592C195.749 179.592 195.229 179.748 194.765 180.06C194.301 180.372 193.933 180.788 193.661 181.308C193.389 181.828 193.253 182.392 193.253 183C193.253 183.632 193.393 184.204 193.673 184.716C193.953 185.228 194.325 185.636 194.789 185.94C195.261 186.236 195.773 186.384 196.325 186.384ZM210.241 189V172.2H220.165V175.128H213.169V178.536H219.013V181.464H213.169V189H210.241ZM221.913 189V171H224.841V189H221.913ZM232.818 189.312C231.714 189.312 230.706 189.028 229.794 188.46C228.89 187.892 228.166 187.132 227.622 186.18C227.086 185.22 226.818 184.16 226.818 183C226.818 182.12 226.974 181.3 227.286 180.54C227.598 179.772 228.026 179.1 228.57 178.524C229.122 177.94 229.762 177.484 230.49 177.156C231.218 176.828 231.994 176.664 232.818 176.664C233.922 176.664 234.926 176.948 235.83 177.516C236.742 178.084 237.466 178.848 238.002 179.808C238.546 180.768 238.818 181.832 238.818 183C238.818 183.872 238.662 184.688 238.35 185.448C238.038 186.208 237.606 186.88 237.054 187.464C236.51 188.04 235.874 188.492 235.146 188.82C234.426 189.148 233.65 189.312 232.818 189.312ZM232.818 186.384C233.402 186.384 233.926 186.228 234.39 185.916C234.854 185.604 235.218 185.192 235.482 184.68C235.754 184.168 235.89 183.608 235.89 183C235.89 182.376 235.75 181.808 235.47 181.296C235.198 180.776 234.826 180.364 234.354 180.06C233.89 179.748 233.378 179.592 232.818 179.592C232.242 179.592 231.722 179.748 231.258 180.06C230.794 180.372 230.426 180.788 230.154 181.308C229.882 181.828 229.746 182.392 229.746 183C229.746 183.632 229.886 184.204 230.166 184.716C230.446 185.228 230.818 185.636 231.282 185.94C231.754 186.236 232.266 186.384 232.818 186.384ZM246.733 189L249.997 172.2H252.421L256.513 182.964L260.605 172.2H263.029L266.293 189H263.305L261.289 178.608L257.509 188.616H255.505L251.725 178.608L249.721 189H246.733ZM273.177 189.312C272.073 189.312 271.065 189.028 270.153 188.46C269.249 187.892 268.525 187.132 267.981 186.18C267.445 185.22 267.177 184.16 267.177 183C267.177 182.12 267.333 181.3 267.645 180.54C267.957 179.772 268.385 179.1 268.929 178.524C269.481 177.94 270.121 177.484 270.849 177.156C271.577 176.828 272.353 176.664 273.177 176.664C274.281 176.664 275.285 176.948 276.189 177.516C277.101 178.084 277.825 178.848 278.361 179.808C278.905 180.768 279.177 181.832 279.177 183C279.177 183.872 279.021 184.688 278.709 185.448C278.397 186.208 277.965 186.88 277.413 187.464C276.869 188.04 276.233 188.492 275.505 188.82C274.785 189.148 274.009 189.312 273.177 189.312ZM273.177 186.384C273.761 186.384 274.285 186.228 274.749 185.916C275.213 185.604 275.577 185.192 275.841 184.68C276.113 184.168 276.249 183.608 276.249 183C276.249 182.376 276.109 181.808 275.829 181.296C275.557 180.776 275.185 180.364 274.713 180.06C274.249 179.748 273.737 179.592 273.177 179.592C272.601 179.592 272.081 179.748 271.617 180.06C271.153 180.372 270.785 180.788 270.513 181.308C270.241 181.828 270.105 182.392 270.105 183C270.105 183.632 270.245 184.204 270.525 184.716C270.805 185.228 271.177 185.636 271.641 185.94C272.113 186.236 272.625 186.384 273.177 186.384ZM292.037 181.416V189H289.109V182.184C289.109 181.712 288.993 181.284 288.761 180.9C288.529 180.508 288.217 180.2 287.825 179.976C287.441 179.744 287.013 179.628 286.541 179.628C286.069 179.628 285.637 179.744 285.245 179.976C284.861 180.2 284.553 180.508 284.321 180.9C284.097 181.284 283.985 181.712 283.985 182.184V189H281.057L281.045 177H283.973L283.985 178.068C284.393 177.636 284.881 177.296 285.449 177.048C286.017 176.792 286.629 176.664 287.285 176.664C288.157 176.664 288.953 176.88 289.673 177.312C290.393 177.736 290.965 178.308 291.389 179.028C291.821 179.74 292.037 180.536 292.037 181.416ZM299.474 189.312C298.37 189.312 297.362 189.028 296.45 188.46C295.546 187.892 294.822 187.128 294.278 186.168C293.742 185.208 293.474 184.148 293.474 182.988C293.474 182.116 293.63 181.3 293.942 180.54C294.254 179.772 294.682 179.1 295.226 178.524C295.778 177.94 296.418 177.484 297.146 177.156C297.874 176.828 298.65 176.664 299.474 176.664C300.41 176.664 301.266 176.864 302.042 177.264C302.826 177.656 303.49 178.196 304.034 178.884C304.578 179.572 304.974 180.356 305.222 181.236C305.47 182.116 305.526 183.036 305.39 183.996H296.618C296.73 184.444 296.914 184.848 297.17 185.208C297.426 185.56 297.75 185.844 298.142 186.06C298.534 186.268 298.978 186.376 299.474 186.384C299.986 186.392 300.45 186.272 300.866 186.024C301.29 185.768 301.642 185.424 301.922 184.992L304.91 185.688C304.422 186.752 303.694 187.624 302.726 188.304C301.758 188.976 300.674 189.312 299.474 189.312ZM296.522 181.8H302.426C302.338 181.32 302.15 180.888 301.862 180.504C301.582 180.112 301.234 179.8 300.818 179.568C300.402 179.336 299.954 179.22 299.474 179.22C298.994 179.22 298.55 179.336 298.142 179.568C297.734 179.792 297.386 180.1 297.098 180.492C296.818 180.876 296.626 181.312 296.522 181.8ZM314.824 177H317.932L311.368 195H308.26L310.432 189L306.112 177H309.316L311.896 184.992L314.824 177Z" fill="#1D1F1D"/>
<path d="M102.068 210.2H103.783L100.437 215.576V220H98.9807V215.576L95.6417 210.2H97.3567L99.7087 213.987L102.068 210.2ZM106.771 220.182C106.127 220.182 105.539 220.016 105.007 219.685C104.479 219.354 104.057 218.91 103.74 218.355C103.427 217.795 103.271 217.177 103.271 216.5C103.271 215.987 103.362 215.508 103.544 215.065C103.726 214.617 103.975 214.225 104.293 213.889C104.615 213.548 104.988 213.282 105.413 213.091C105.837 212.9 106.29 212.804 106.771 212.804C107.415 212.804 108 212.97 108.528 213.301C109.06 213.632 109.482 214.078 109.795 214.638C110.112 215.198 110.271 215.819 110.271 216.5C110.271 217.009 110.18 217.485 109.998 217.928C109.816 218.371 109.564 218.763 109.242 219.104C108.924 219.44 108.553 219.704 108.129 219.895C107.709 220.086 107.256 220.182 106.771 220.182ZM106.771 218.726C107.158 218.726 107.506 218.623 107.814 218.418C108.122 218.213 108.364 217.942 108.542 217.606C108.724 217.265 108.815 216.897 108.815 216.5C108.815 216.094 108.721 215.721 108.535 215.38C108.353 215.039 108.108 214.769 107.8 214.568C107.492 214.363 107.149 214.26 106.771 214.26C106.388 214.26 106.04 214.363 105.728 214.568C105.42 214.773 105.175 215.046 104.993 215.387C104.815 215.728 104.727 216.099 104.727 216.5C104.727 216.915 104.82 217.291 105.007 217.627C105.193 217.963 105.441 218.231 105.749 218.432C106.061 218.628 106.402 218.726 106.771 218.726ZM110.985 217.375V213H112.441V217.018C112.441 217.331 112.518 217.615 112.672 217.872C112.826 218.129 113.031 218.334 113.288 218.488C113.544 218.637 113.827 218.712 114.135 218.712C114.447 218.712 114.73 218.637 114.982 218.488C115.238 218.334 115.441 218.129 115.591 217.872C115.745 217.615 115.822 217.331 115.822 217.018V213H117.278L117.285 220H115.829L115.822 219.244C115.584 219.533 115.287 219.762 114.933 219.93C114.578 220.098 114.198 220.182 113.792 220.182C113.274 220.182 112.802 220.056 112.378 219.804C111.953 219.552 111.615 219.214 111.363 218.789C111.111 218.364 110.985 217.893 110.985 217.375ZM118.689 220V213H120.145V213.742C120.387 213.453 120.686 213.224 121.041 213.056C121.395 212.888 121.778 212.804 122.189 212.804C122.45 212.804 122.709 212.839 122.966 212.909L122.385 214.379C122.203 214.309 122.021 214.274 121.839 214.274C121.531 214.274 121.248 214.351 120.992 214.505C120.735 214.654 120.53 214.857 120.376 215.114C120.222 215.371 120.145 215.655 120.145 215.968V220H118.689ZM131.887 218.012L133.189 218.719C132.871 219.162 132.468 219.517 131.978 219.783C131.492 220.049 130.965 220.182 130.396 220.182C129.752 220.182 129.164 220.016 128.632 219.685C128.104 219.354 127.682 218.91 127.365 218.355C127.052 217.795 126.896 217.177 126.896 216.5C126.896 215.987 126.987 215.508 127.169 215.065C127.351 214.617 127.6 214.225 127.918 213.889C128.24 213.548 128.613 213.282 129.038 213.091C129.462 212.9 129.915 212.804 130.396 212.804C130.965 212.804 131.492 212.937 131.978 213.203C132.468 213.469 132.871 213.826 133.189 214.274L131.887 214.981C131.691 214.748 131.462 214.57 131.201 214.449C130.939 214.323 130.671 214.26 130.396 214.26C130.013 214.26 129.665 214.365 129.353 214.575C129.045 214.78 128.8 215.053 128.618 215.394C128.44 215.73 128.352 216.099 128.352 216.5C128.352 216.897 128.443 217.265 128.625 217.606C128.807 217.942 129.052 218.213 129.36 218.418C129.672 218.623 130.018 218.726 130.396 218.726C130.685 218.726 130.96 218.661 131.222 218.53C131.483 218.399 131.705 218.227 131.887 218.012ZM134.452 220V213H135.908V213.742C136.151 213.453 136.45 213.224 136.804 213.056C137.159 212.888 137.542 212.804 137.952 212.804C138.214 212.804 138.473 212.839 138.729 212.909L138.148 214.379C137.966 214.309 137.784 214.274 137.602 214.274C137.294 214.274 137.012 214.351 136.755 214.505C136.499 214.654 136.293 214.857 136.139 215.114C135.985 215.371 135.908 215.655 135.908 215.968V220H134.452ZM142.29 220.182C141.646 220.182 141.058 220.016 140.526 219.685C139.999 219.354 139.576 218.91 139.259 218.355C138.946 217.795 138.79 217.177 138.79 216.5C138.79 215.987 138.881 215.508 139.063 215.065C139.245 214.617 139.495 214.225 139.812 213.889C140.134 213.548 140.507 213.282 140.932 213.091C141.357 212.9 141.809 212.804 142.29 212.804C142.827 212.804 143.319 212.916 143.767 213.14C144.215 213.359 144.598 213.665 144.915 214.057C145.232 214.444 145.466 214.892 145.615 215.401C145.764 215.905 145.809 216.442 145.748 217.011H140.351C140.412 217.333 140.528 217.625 140.701 217.886C140.878 218.143 141.102 218.346 141.373 218.495C141.648 218.644 141.954 218.721 142.29 218.726C142.645 218.726 142.967 218.637 143.256 218.46C143.55 218.283 143.79 218.038 143.977 217.725L145.454 218.068C145.174 218.689 144.752 219.197 144.187 219.594C143.622 219.986 142.99 220.182 142.29 220.182ZM140.302 215.898H144.278C144.231 215.562 144.112 215.259 143.921 214.988C143.734 214.713 143.499 214.496 143.214 214.337C142.934 214.174 142.626 214.092 142.29 214.092C141.959 214.092 141.651 214.171 141.366 214.33C141.086 214.489 140.853 214.706 140.666 214.981C140.484 215.252 140.363 215.557 140.302 215.898ZM152.347 209.5H153.803V220H152.347V218.971C152.118 219.335 151.819 219.629 151.451 219.853C151.082 220.072 150.65 220.182 150.156 220.182C149.647 220.182 149.171 220.086 148.728 219.895C148.284 219.704 147.892 219.44 147.552 219.104C147.216 218.763 146.952 218.371 146.761 217.928C146.569 217.485 146.474 217.009 146.474 216.5C146.474 215.991 146.569 215.515 146.761 215.072C146.952 214.624 147.216 214.232 147.552 213.896C147.892 213.555 148.284 213.289 148.728 213.098C149.171 212.907 149.647 212.811 150.156 212.811C150.65 212.811 151.082 212.923 151.451 213.147C151.819 213.366 152.118 213.656 152.347 214.015V209.5ZM150.17 218.775C150.58 218.775 150.94 218.675 151.248 218.474C151.556 218.269 151.794 217.993 151.962 217.648C152.134 217.303 152.221 216.92 152.221 216.5C152.221 216.075 152.134 215.69 151.962 215.345C151.789 215 151.549 214.727 151.241 214.526C150.937 214.321 150.58 214.218 150.17 214.218C149.764 214.218 149.393 214.321 149.057 214.526C148.725 214.731 148.459 215.007 148.259 215.352C148.063 215.697 147.965 216.08 147.965 216.5C147.965 216.925 148.065 217.31 148.266 217.655C148.471 217.996 148.739 218.269 149.071 218.474C149.407 218.675 149.773 218.775 150.17 218.775ZM155.48 213H156.936V220H155.48V213ZM156.222 211.985C155.998 211.985 155.811 211.913 155.662 211.768C155.512 211.623 155.438 211.441 155.438 211.222C155.438 211.007 155.512 210.828 155.662 210.683C155.811 210.534 155.995 210.459 156.215 210.459C156.429 210.459 156.611 210.534 156.761 210.683C156.91 210.828 156.985 211.007 156.985 211.222C156.985 211.441 156.91 211.623 156.761 211.768C156.616 211.913 156.436 211.985 156.222 211.985ZM162.307 214.456H160.837L160.83 220H159.374L159.381 214.456H158.268V213H159.381L159.374 210.802H160.83L160.837 213H162.307V214.456ZM166.923 220V209.5H168.379V220H166.923ZM170.054 213H171.51V220H170.054V213ZM170.796 211.985C170.572 211.985 170.385 211.913 170.236 211.768C170.087 211.623 170.012 211.441 170.012 211.222C170.012 211.007 170.087 210.828 170.236 210.683C170.385 210.534 170.57 210.459 170.789 210.459C171.004 210.459 171.186 210.534 171.335 210.683C171.484 210.828 171.559 211.007 171.559 211.222C171.559 211.441 171.484 211.623 171.335 211.768C171.19 211.913 171.011 211.985 170.796 211.985ZM173.13 220V213H174.586V213.742C174.829 213.453 175.125 213.224 175.475 213.056C175.83 212.888 176.212 212.804 176.623 212.804C177.122 212.804 177.582 212.925 178.002 213.168C178.422 213.406 178.756 213.723 179.003 214.12C179.25 213.723 179.579 213.406 179.99 213.168C180.405 212.925 180.863 212.804 181.362 212.804C181.88 212.804 182.351 212.93 182.776 213.182C183.201 213.434 183.539 213.772 183.791 214.197C184.043 214.622 184.169 215.093 184.169 215.611V220H182.713V215.982C182.713 215.674 182.638 215.392 182.489 215.135C182.34 214.878 182.139 214.671 181.887 214.512C181.635 214.353 181.355 214.274 181.047 214.274C180.739 214.274 180.459 214.349 180.207 214.498C179.955 214.647 179.754 214.85 179.605 215.107C179.456 215.364 179.381 215.655 179.381 215.982V220H177.925V215.982C177.925 215.655 177.85 215.364 177.701 215.107C177.552 214.85 177.349 214.647 177.092 214.498C176.84 214.349 176.56 214.274 176.252 214.274C175.949 214.274 175.669 214.353 175.412 214.512C175.16 214.671 174.959 214.878 174.81 215.135C174.661 215.392 174.586 215.674 174.586 215.982V220H173.13ZM185.571 213H187.027V220H185.571V213ZM186.313 211.985C186.089 211.985 185.903 211.913 185.753 211.768C185.604 211.623 185.529 211.441 185.529 211.222C185.529 211.007 185.604 210.828 185.753 210.683C185.903 210.534 186.087 210.459 186.306 210.459C186.521 210.459 186.703 210.534 186.852 210.683C187.002 210.828 187.076 211.007 187.076 211.222C187.076 211.441 187.002 211.623 186.852 211.768C186.708 211.913 186.528 211.985 186.313 211.985ZM192.398 214.456H190.928L190.921 220H189.465L189.472 214.456H188.359V213H189.472L189.465 210.802H190.921L190.928 213H192.398V214.456ZM197.015 213H198.471V220H197.015V213ZM197.757 211.985C197.533 211.985 197.346 211.913 197.197 211.768C197.047 211.623 196.973 211.441 196.973 211.222C196.973 211.007 197.047 210.828 197.197 210.683C197.346 210.534 197.53 210.459 197.75 210.459C197.964 210.459 198.146 210.534 198.296 210.683C198.445 210.828 198.52 211.007 198.52 211.222C198.52 211.441 198.445 211.623 198.296 211.768C198.151 211.913 197.971 211.985 197.757 211.985ZM202.15 220.133C201.781 220.11 201.422 220.035 201.072 219.909C200.722 219.783 200.414 219.613 200.148 219.398C199.887 219.179 199.691 218.922 199.56 218.628L200.799 218.096C200.86 218.222 200.965 218.346 201.114 218.467C201.268 218.588 201.448 218.689 201.653 218.768C201.858 218.843 202.073 218.88 202.297 218.88C202.516 218.88 202.719 218.85 202.906 218.789C203.097 218.724 203.254 218.626 203.375 218.495C203.496 218.364 203.557 218.208 203.557 218.026C203.557 217.821 203.487 217.662 203.347 217.55C203.212 217.433 203.041 217.345 202.836 217.284C202.631 217.223 202.425 217.165 202.22 217.109C201.763 217.006 201.343 216.866 200.96 216.689C200.582 216.507 200.281 216.276 200.057 215.996C199.833 215.711 199.721 215.364 199.721 214.953C199.721 214.505 199.842 214.118 200.085 213.791C200.328 213.46 200.645 213.205 201.037 213.028C201.434 212.851 201.856 212.762 202.304 212.762C202.864 212.762 203.377 212.881 203.844 213.119C204.311 213.357 204.668 213.684 204.915 214.099L203.76 214.785C203.69 214.645 203.585 214.519 203.445 214.407C203.305 214.295 203.146 214.206 202.969 214.141C202.792 214.071 202.607 214.031 202.416 214.022C202.178 214.013 201.956 214.041 201.751 214.106C201.55 214.167 201.389 214.265 201.268 214.4C201.147 214.535 201.086 214.708 201.086 214.918C201.086 215.123 201.158 215.277 201.303 215.38C201.448 215.478 201.63 215.557 201.849 215.618C202.073 215.679 202.302 215.746 202.535 215.821C202.95 215.952 203.34 216.113 203.704 216.304C204.068 216.491 204.362 216.722 204.586 216.997C204.81 217.272 204.917 217.608 204.908 218.005C204.908 218.444 204.775 218.829 204.509 219.16C204.248 219.491 203.907 219.743 203.487 219.916C203.067 220.089 202.621 220.161 202.15 220.133Z" fill="#1D1F1D"/>
<path d="M209.47 220V210.2H213.229C213.761 210.2 214.242 210.333 214.671 210.599C215.1 210.865 215.441 211.222 215.693 211.67C215.945 212.113 216.071 212.606 216.071 213.147C216.071 213.59 215.989 213.999 215.826 214.372C215.667 214.741 215.443 215.06 215.154 215.331C214.869 215.602 214.54 215.807 214.167 215.947L216.512 220H214.545L212.277 216.101H211.178V220H209.47ZM211.178 214.393H213.033C213.276 214.393 213.497 214.332 213.698 214.211C213.899 214.09 214.06 213.926 214.181 213.721C214.302 213.516 214.363 213.287 214.363 213.035C214.363 212.778 214.302 212.547 214.181 212.342C214.06 212.137 213.899 211.973 213.698 211.852C213.497 211.731 213.276 211.67 213.033 211.67H211.178V214.393ZM220.025 220.126C219.661 220.103 219.309 220.03 218.968 219.909C218.632 219.783 218.333 219.613 218.072 219.398C217.811 219.183 217.61 218.927 217.47 218.628L218.912 218.012C218.968 218.105 219.059 218.206 219.185 218.313C219.311 218.416 219.46 218.502 219.633 218.572C219.81 218.642 220.004 218.677 220.214 218.677C220.391 218.677 220.559 218.654 220.718 218.607C220.881 218.556 221.012 218.479 221.11 218.376C221.213 218.273 221.264 218.14 221.264 217.977C221.264 217.804 221.203 217.671 221.082 217.578C220.965 217.48 220.816 217.408 220.634 217.361C220.457 217.31 220.284 217.263 220.116 217.221C219.673 217.132 219.26 216.995 218.877 216.808C218.499 216.621 218.193 216.381 217.96 216.087C217.731 215.788 217.617 215.429 217.617 215.009C217.617 214.547 217.738 214.148 217.981 213.812C218.228 213.476 218.548 213.217 218.94 213.035C219.337 212.853 219.764 212.762 220.221 212.762C220.776 212.762 221.285 212.879 221.747 213.112C222.214 213.341 222.582 213.665 222.853 214.085L221.502 214.883C221.437 214.771 221.346 214.668 221.229 214.575C221.112 214.477 220.979 214.398 220.83 214.337C220.681 214.272 220.524 214.234 220.361 214.225C220.151 214.216 219.96 214.234 219.787 214.281C219.614 214.328 219.474 214.407 219.367 214.519C219.264 214.631 219.213 214.78 219.213 214.967C219.213 215.144 219.283 215.277 219.423 215.366C219.563 215.45 219.731 215.515 219.927 215.562C220.128 215.609 220.319 215.66 220.501 215.716C220.912 215.851 221.297 216.017 221.656 216.213C222.02 216.409 222.312 216.649 222.531 216.934C222.75 217.219 222.855 217.559 222.846 217.956C222.846 218.409 222.711 218.805 222.44 219.146C222.169 219.482 221.819 219.739 221.39 219.916C220.965 220.093 220.51 220.163 220.025 220.126ZM224.584 220.182C224.342 220.182 224.134 220.098 223.961 219.93C223.793 219.757 223.709 219.547 223.709 219.3C223.709 219.062 223.793 218.857 223.961 218.684C224.134 218.511 224.342 218.425 224.584 218.425C224.827 218.425 225.035 218.511 225.207 218.684C225.38 218.857 225.466 219.062 225.466 219.3C225.466 219.547 225.38 219.757 225.207 219.93C225.035 220.098 224.827 220.182 224.584 220.182ZM230.231 220V218.474C230.534 218.245 230.894 217.963 231.309 217.627C231.724 217.286 232.151 216.92 232.59 216.528C233.029 216.131 233.435 215.735 233.808 215.338C234.181 214.941 234.485 214.563 234.718 214.204C234.956 213.845 235.075 213.537 235.075 213.28C235.075 212.995 235.005 212.736 234.865 212.503C234.725 212.265 234.538 212.076 234.305 211.936C234.076 211.796 233.82 211.726 233.535 211.726C233.25 211.726 232.991 211.796 232.758 211.936C232.525 212.076 232.338 212.265 232.198 212.503C232.058 212.736 231.988 212.995 231.988 213.28H230.28C230.28 212.664 230.429 212.111 230.728 211.621C231.027 211.126 231.421 210.737 231.911 210.452C232.406 210.163 232.947 210.018 233.535 210.018C234.132 210.018 234.676 210.165 235.166 210.459C235.656 210.748 236.048 211.14 236.342 211.635C236.636 212.13 236.783 212.678 236.783 213.28C236.783 213.597 236.725 213.917 236.608 214.239C236.491 214.561 236.328 214.885 236.118 215.212C235.908 215.539 235.661 215.87 235.376 216.206C235.091 216.537 234.776 216.878 234.431 217.228C234.09 217.573 233.731 217.928 233.353 218.292H236.832V220H230.231ZM241.519 220.182C240.889 220.182 240.32 220.03 239.811 219.727C239.302 219.419 238.899 219.011 238.6 218.502C238.306 217.993 238.159 217.436 238.159 216.829H239.867C239.867 217.132 239.942 217.41 240.091 217.662C240.24 217.909 240.439 218.108 240.686 218.257C240.938 218.402 241.216 218.474 241.519 218.474C241.822 218.474 242.098 218.402 242.345 218.257C242.592 218.108 242.791 217.909 242.94 217.662C243.089 217.41 243.164 217.132 243.164 216.829C243.164 216.526 243.099 216.248 242.968 215.996C242.842 215.739 242.634 215.536 242.345 215.387C242.06 215.233 241.682 215.156 241.211 215.156H238.691L239.727 210.2H244.543V211.908H241.113L240.798 213.448L241.491 213.455C242.154 213.478 242.739 213.639 243.248 213.938C243.757 214.237 244.153 214.638 244.438 215.142C244.727 215.641 244.872 216.204 244.872 216.829C244.872 217.286 244.786 217.718 244.613 218.124C244.44 218.53 244.2 218.887 243.892 219.195C243.584 219.503 243.227 219.746 242.821 219.923C242.42 220.096 241.986 220.182 241.519 220.182ZM246.268 220.784L246.702 218.418H248.41L247.409 220.784H246.268ZM253.484 220.182C252.915 220.182 252.397 220.051 251.93 219.79C251.463 219.524 251.06 219.158 250.719 218.691C250.383 218.224 250.124 217.685 249.942 217.074C249.76 216.458 249.669 215.8 249.669 215.1C249.669 214.4 249.76 213.744 249.942 213.133C250.124 212.517 250.383 211.976 250.719 211.509C251.06 211.042 251.463 210.678 251.93 210.417C252.397 210.151 252.915 210.018 253.484 210.018C254.053 210.018 254.571 210.151 255.038 210.417C255.505 210.678 255.904 211.042 256.235 211.509C256.571 211.976 256.83 212.517 257.012 213.133C257.199 213.744 257.292 214.4 257.292 215.1C257.292 215.8 257.199 216.458 257.012 217.074C256.83 217.685 256.571 218.224 256.235 218.691C255.904 219.158 255.505 219.524 255.038 219.79C254.571 220.051 254.053 220.182 253.484 220.182ZM253.484 218.474C253.983 218.474 254.396 218.315 254.723 217.998C255.05 217.681 255.292 217.265 255.451 216.752C255.61 216.239 255.689 215.688 255.689 215.1C255.689 214.479 255.605 213.915 255.437 213.406C255.269 212.893 255.022 212.484 254.695 212.181C254.368 211.878 253.965 211.726 253.484 211.726C253.106 211.726 252.777 211.819 252.497 212.006C252.222 212.188 251.993 212.438 251.811 212.755C251.629 213.072 251.494 213.434 251.405 213.84C251.316 214.241 251.272 214.661 251.272 215.1C251.272 215.683 251.351 216.234 251.51 216.752C251.673 217.265 251.918 217.681 252.245 217.998C252.576 218.315 252.989 218.474 253.484 218.474ZM261.632 220.182C261.063 220.182 260.545 220.051 260.078 219.79C259.612 219.524 259.208 219.158 258.867 218.691C258.531 218.224 258.272 217.685 258.09 217.074C257.908 216.458 257.817 215.8 257.817 215.1C257.817 214.4 257.908 213.744 258.09 213.133C258.272 212.517 258.531 211.976 258.867 211.509C259.208 211.042 259.612 210.678 260.078 210.417C260.545 210.151 261.063 210.018 261.632 210.018C262.202 210.018 262.72 210.151 263.186 210.417C263.653 210.678 264.052 211.042 264.383 211.509C264.719 211.976 264.978 212.517 265.16 213.133C265.347 213.744 265.44 214.4 265.44 215.1C265.44 215.8 265.347 216.458 265.16 217.074C264.978 217.685 264.719 218.224 264.383 218.691C264.052 219.158 263.653 219.524 263.186 219.79C262.72 220.051 262.202 220.182 261.632 220.182ZM261.632 218.474C262.132 218.474 262.545 218.315 262.871 217.998C263.198 217.681 263.441 217.265 263.599 216.752C263.758 216.239 263.837 215.688 263.837 215.1C263.837 214.479 263.753 213.915 263.585 213.406C263.417 212.893 263.17 212.484 262.843 212.181C262.517 211.878 262.113 211.726 261.632 211.726C261.254 211.726 260.925 211.819 260.645 212.006C260.37 212.188 260.141 212.438 259.959 212.755C259.777 213.072 259.642 213.434 259.553 213.84C259.465 214.241 259.42 214.661 259.42 215.1C259.42 215.683 259.5 216.234 259.658 216.752C259.822 217.265 260.067 217.681 260.393 217.998C260.725 218.315 261.138 218.474 261.632 218.474ZM269.781 220.182C269.212 220.182 268.694 220.051 268.227 219.79C267.76 219.524 267.357 219.158 267.016 218.691C266.68 218.224 266.421 217.685 266.239 217.074C266.057 216.458 265.966 215.8 265.966 215.1C265.966 214.4 266.057 213.744 266.239 213.133C266.421 212.517 266.68 211.976 267.016 211.509C267.357 211.042 267.76 210.678 268.227 210.417C268.694 210.151 269.212 210.018 269.781 210.018C270.35 210.018 270.868 210.151 271.335 210.417C271.802 210.678 272.201 211.042 272.532 211.509C272.868 211.976 273.127 212.517 273.309 213.133C273.496 213.744 273.589 214.4 273.589 215.1C273.589 215.8 273.496 216.458 273.309 217.074C273.127 217.685 272.868 218.224 272.532 218.691C272.201 219.158 271.802 219.524 271.335 219.79C270.868 220.051 270.35 220.182 269.781 220.182ZM269.781 218.474C270.28 218.474 270.693 218.315 271.02 217.998C271.347 217.681 271.589 217.265 271.748 216.752C271.907 216.239 271.986 215.688 271.986 215.1C271.986 214.479 271.902 213.915 271.734 213.406C271.566 212.893 271.319 212.484 270.992 212.181C270.665 211.878 270.262 211.726 269.781 211.726C269.403 211.726 269.074 211.819 268.794 212.006C268.519 212.188 268.29 212.438 268.108 212.755C267.926 213.072 267.791 213.434 267.702 213.84C267.613 214.241 267.569 214.661 267.569 215.1C267.569 215.683 267.648 216.234 267.807 216.752C267.97 217.265 268.215 217.681 268.542 217.998C268.873 218.315 269.286 218.474 269.781 218.474ZM275.444 220.182C275.201 220.182 274.993 220.098 274.821 219.93C274.653 219.757 274.569 219.547 274.569 219.3C274.569 219.062 274.653 218.857 274.821 218.684C274.993 218.511 275.201 218.425 275.444 218.425C275.686 218.425 275.894 218.511 276.067 218.684C276.239 218.857 276.326 219.062 276.326 219.3C276.326 219.547 276.239 219.757 276.067 219.93C275.894 220.098 275.686 220.182 275.444 220.182ZM281.402 220.182C280.833 220.182 280.315 220.051 279.848 219.79C279.381 219.524 278.978 219.158 278.637 218.691C278.301 218.224 278.042 217.685 277.86 217.074C277.678 216.458 277.587 215.8 277.587 215.1C277.587 214.4 277.678 213.744 277.86 213.133C278.042 212.517 278.301 211.976 278.637 211.509C278.978 211.042 279.381 210.678 279.848 210.417C280.315 210.151 280.833 210.018 281.402 210.018C281.971 210.018 282.489 210.151 282.956 210.417C283.423 210.678 283.822 211.042 284.153 211.509C284.489 211.976 284.748 212.517 284.93 213.133C285.117 213.744 285.21 214.4 285.21 215.1C285.21 215.8 285.117 216.458 284.93 217.074C284.748 217.685 284.489 218.224 284.153 218.691C283.822 219.158 283.423 219.524 282.956 219.79C282.489 220.051 281.971 220.182 281.402 220.182ZM281.402 218.474C281.901 218.474 282.314 218.315 282.641 217.998C282.968 217.681 283.21 217.265 283.369 216.752C283.528 216.239 283.607 215.688 283.607 215.1C283.607 214.479 283.523 213.915 283.355 213.406C283.187 212.893 282.94 212.484 282.613 212.181C282.286 211.878 281.883 211.726 281.402 211.726C281.024 211.726 280.695 211.819 280.415 212.006C280.14 212.188 279.911 212.438 279.729 212.755C279.547 213.072 279.412 213.434 279.323 213.84C279.234 214.241 279.19 214.661 279.19 215.1C279.19 215.683 279.269 216.234 279.428 216.752C279.591 217.265 279.836 217.681 280.163 217.998C280.494 218.315 280.907 218.474 281.402 218.474ZM289.55 220.182C288.981 220.182 288.463 220.051 287.996 219.79C287.53 219.524 287.126 219.158 286.785 218.691C286.449 218.224 286.19 217.685 286.008 217.074C285.826 216.458 285.735 215.8 285.735 215.1C285.735 214.4 285.826 213.744 286.008 213.133C286.19 212.517 286.449 211.976 286.785 211.509C287.126 211.042 287.53 210.678 287.996 210.417C288.463 210.151 288.981 210.018 289.55 210.018C290.12 210.018 290.638 210.151 291.104 210.417C291.571 210.678 291.97 211.042 292.301 211.509C292.637 211.976 292.896 212.517 293.078 213.133C293.265 213.744 293.358 214.4 293.358 215.1C293.358 215.8 293.265 216.458 293.078 217.074C292.896 217.685 292.637 218.224 292.301 218.691C291.97 219.158 291.571 219.524 291.104 219.79C290.638 220.051 290.12 220.182 289.55 220.182ZM289.55 218.474C290.05 218.474 290.463 218.315 290.789 217.998C291.116 217.681 291.359 217.265 291.517 216.752C291.676 216.239 291.755 215.688 291.755 215.1C291.755 214.479 291.671 213.915 291.503 213.406C291.335 212.893 291.088 212.484 290.761 212.181C290.435 211.878 290.031 211.726 289.55 211.726C289.172 211.726 288.843 211.819 288.563 212.006C288.288 212.188 288.059 212.438 287.877 212.755C287.695 213.072 287.56 213.434 287.471 213.84C287.383 214.241 287.338 214.661 287.338 215.1C287.338 215.683 287.418 216.234 287.576 216.752C287.74 217.265 287.985 217.681 288.311 217.998C288.643 218.315 289.056 218.474 289.55 218.474Z" fill="#42C2D1"/>
<g filter="url(#filter0_d_475_297)">
<rect x="28" y="758" width="334" height="58" rx="15" fill="#1D1F1D"/>
</g>
<path d="M170.056 782.2H172.072L168.705 787.583V792H166.997V787.583L163.63 782.2H165.646L167.851 785.721L170.056 782.2ZM175.332 782.2H177.299L180.862 792H179.049L178.419 790.264H174.219L173.589 792H171.776L175.332 782.2ZM174.842 788.556H177.789L176.312 784.517L174.842 788.556ZM185.476 792.182C184.935 792.182 184.415 792.098 183.915 791.93C183.421 791.757 182.987 791.512 182.613 791.195C182.24 790.873 181.972 790.488 181.808 790.04L183.411 789.452C183.477 789.639 183.61 789.809 183.81 789.963C184.011 790.117 184.256 790.241 184.545 790.334C184.835 790.427 185.145 790.474 185.476 790.474C185.817 790.474 186.134 790.423 186.428 790.32C186.727 790.213 186.967 790.066 187.149 789.879C187.331 789.688 187.422 789.466 187.422 789.214C187.422 788.957 187.327 788.747 187.135 788.584C186.944 788.416 186.699 788.283 186.4 788.185C186.102 788.087 185.794 788.012 185.476 787.961C184.781 787.854 184.158 787.688 183.607 787.464C183.057 787.24 182.62 786.93 182.298 786.533C181.981 786.136 181.822 785.623 181.822 784.993C181.822 784.4 181.993 783.882 182.333 783.439C182.674 782.996 183.122 782.65 183.677 782.403C184.233 782.156 184.832 782.032 185.476 782.032C186.013 782.032 186.531 782.116 187.03 782.284C187.53 782.452 187.966 782.697 188.339 783.019C188.717 783.341 188.988 783.728 189.151 784.181L187.541 784.762C187.476 784.575 187.343 784.405 187.142 784.251C186.942 784.097 186.697 783.976 186.407 783.887C186.118 783.794 185.808 783.747 185.476 783.747C185.145 783.742 184.83 783.796 184.531 783.908C184.237 784.015 183.997 784.162 183.81 784.349C183.624 784.536 183.53 784.75 183.53 784.993C183.53 785.306 183.617 785.541 183.789 785.7C183.967 785.859 184.202 785.975 184.496 786.05C184.79 786.12 185.117 786.185 185.476 786.246C186.13 786.349 186.734 786.521 187.289 786.764C187.845 787.007 188.29 787.331 188.626 787.737C188.962 788.138 189.13 788.631 189.13 789.214C189.13 789.807 188.962 790.327 188.626 790.775C188.29 791.218 187.845 791.564 187.289 791.811C186.734 792.058 186.13 792.182 185.476 792.182ZM194.713 792.182C194.171 792.182 193.651 792.098 193.152 791.93C192.657 791.757 192.223 791.512 191.85 791.195C191.476 790.873 191.208 790.488 191.045 790.04L192.648 789.452C192.713 789.639 192.846 789.809 193.047 789.963C193.247 790.117 193.492 790.241 193.782 790.334C194.071 790.427 194.381 790.474 194.713 790.474C195.053 790.474 195.371 790.423 195.665 790.32C195.963 790.213 196.204 790.066 196.386 789.879C196.568 789.688 196.659 789.466 196.659 789.214C196.659 788.957 196.563 788.747 196.372 788.584C196.18 788.416 195.935 788.283 195.637 788.185C195.338 788.087 195.03 788.012 194.713 787.961C194.017 787.854 193.394 787.688 192.844 787.464C192.293 787.24 191.857 786.93 191.535 786.533C191.217 786.136 191.059 785.623 191.059 784.993C191.059 784.4 191.229 783.882 191.57 783.439C191.91 782.996 192.358 782.65 192.914 782.403C193.469 782.156 194.069 782.032 194.713 782.032C195.249 782.032 195.767 782.116 196.267 782.284C196.766 782.452 197.202 782.697 197.576 783.019C197.954 783.341 198.224 783.728 198.388 784.181L196.778 784.762C196.712 784.575 196.579 784.405 196.379 784.251C196.178 784.097 195.933 783.976 195.644 783.887C195.354 783.794 195.044 783.747 194.713 783.747C194.381 783.742 194.066 783.796 193.768 783.908C193.474 784.015 193.233 784.162 193.047 784.349C192.86 784.536 192.767 784.75 192.767 784.993C192.767 785.306 192.853 785.541 193.026 785.7C193.203 785.859 193.439 785.975 193.733 786.05C194.027 786.12 194.353 786.185 194.713 786.246C195.366 786.349 195.97 786.521 196.526 786.764C197.081 787.007 197.527 787.331 197.863 787.737C198.199 788.138 198.367 788.631 198.367 789.214C198.367 789.807 198.199 790.327 197.863 790.775C197.527 791.218 197.081 791.564 196.526 791.811C195.97 792.058 195.366 792.182 194.713 792.182ZM203.949 792.182C203.408 792.182 202.887 792.098 202.388 791.93C201.893 791.757 201.459 791.512 201.086 791.195C200.713 790.873 200.444 790.488 200.281 790.04L201.884 789.452C201.949 789.639 202.082 789.809 202.283 789.963C202.484 790.117 202.729 790.241 203.018 790.334C203.307 790.427 203.618 790.474 203.949 790.474C204.29 790.474 204.607 790.423 204.901 790.32C205.2 790.213 205.44 790.066 205.622 789.879C205.804 789.688 205.895 789.466 205.895 789.214C205.895 788.957 205.799 788.747 205.608 788.584C205.417 788.416 205.172 788.283 204.873 788.185C204.574 788.087 204.266 788.012 203.949 787.961C203.254 787.854 202.631 787.688 202.08 787.464C201.529 787.24 201.093 786.93 200.771 786.533C200.454 786.136 200.295 785.623 200.295 784.993C200.295 784.4 200.465 783.882 200.806 783.439C201.147 782.996 201.595 782.65 202.15 782.403C202.705 782.156 203.305 782.032 203.949 782.032C204.486 782.032 205.004 782.116 205.503 782.284C206.002 782.452 206.439 782.697 206.812 783.019C207.19 783.341 207.461 783.728 207.624 784.181L206.014 784.762C205.949 784.575 205.816 784.405 205.615 784.251C205.414 784.097 205.169 783.976 204.88 783.887C204.591 783.794 204.28 783.747 203.949 783.747C203.618 783.742 203.303 783.796 203.004 783.908C202.71 784.015 202.47 784.162 202.283 784.349C202.096 784.536 202.003 784.75 202.003 784.993C202.003 785.306 202.089 785.541 202.262 785.7C202.439 785.859 202.675 785.975 202.969 786.05C203.263 786.12 203.59 786.185 203.949 786.246C204.602 786.349 205.207 786.521 205.762 786.764C206.317 787.007 206.763 787.331 207.099 787.737C207.435 788.138 207.603 788.631 207.603 789.214C207.603 789.807 207.435 790.327 207.099 790.775C206.763 791.218 206.317 791.564 205.762 791.811C205.207 792.058 204.602 792.182 203.949 792.182ZM213.185 792.182C212.644 792.182 212.124 792.098 211.624 791.93C211.13 791.757 210.696 791.512 210.322 791.195C209.949 790.873 209.681 790.488 209.517 790.04L211.12 789.452C211.186 789.639 211.319 789.809 211.519 789.963C211.72 790.117 211.965 790.241 212.254 790.334C212.544 790.427 212.854 790.474 213.185 790.474C213.526 790.474 213.843 790.423 214.137 790.32C214.436 790.213 214.676 790.066 214.858 789.879C215.04 789.688 215.131 789.466 215.131 789.214C215.131 788.957 215.036 788.747 214.844 788.584C214.653 788.416 214.408 788.283 214.109 788.185C213.811 788.087 213.503 788.012 213.185 787.961C212.49 787.854 211.867 787.688 211.316 787.464C210.766 787.24 210.329 786.93 210.007 786.533C209.69 786.136 209.531 785.623 209.531 784.993C209.531 784.4 209.702 783.882 210.042 783.439C210.383 782.996 210.831 782.65 211.386 782.403C211.942 782.156 212.541 782.032 213.185 782.032C213.722 782.032 214.24 782.116 214.739 782.284C215.239 782.452 215.675 782.697 216.048 783.019C216.426 783.341 216.697 783.728 216.86 784.181L215.25 784.762C215.185 784.575 215.052 784.405 214.851 784.251C214.651 784.097 214.406 783.976 214.116 783.887C213.827 783.794 213.517 783.747 213.185 783.747C212.854 783.742 212.539 783.796 212.24 783.908C211.946 784.015 211.706 784.162 211.519 784.349C211.333 784.536 211.239 784.75 211.239 784.993C211.239 785.306 211.326 785.541 211.498 785.7C211.676 785.859 211.911 785.975 212.205 786.05C212.499 786.12 212.826 786.185 213.185 786.246C213.839 786.349 214.443 786.521 214.998 786.764C215.554 787.007 215.999 787.331 216.335 787.737C216.671 788.138 216.839 788.631 216.839 789.214C216.839 789.807 216.671 790.327 216.335 790.775C215.999 791.218 215.554 791.564 214.998 791.811C214.443 792.058 213.839 792.182 213.185 792.182ZM222.422 792.182C221.88 792.182 221.36 792.098 220.861 791.93C220.366 791.757 219.932 791.512 219.559 791.195C219.185 790.873 218.917 790.488 218.754 790.04L220.357 789.452C220.422 789.639 220.555 789.809 220.756 789.963C220.956 790.117 221.201 790.241 221.491 790.334C221.78 790.427 222.09 790.474 222.422 790.474C222.762 790.474 223.08 790.423 223.374 790.32C223.672 790.213 223.913 790.066 224.095 789.879C224.277 789.688 224.368 789.466 224.368 789.214C224.368 788.957 224.272 788.747 224.081 788.584C223.889 788.416 223.644 788.283 223.346 788.185C223.047 788.087 222.739 788.012 222.422 787.961C221.726 787.854 221.103 787.688 220.553 787.464C220.002 787.24 219.566 786.93 219.244 786.533C218.926 786.136 218.768 785.623 218.768 784.993C218.768 784.4 218.938 783.882 219.279 783.439C219.619 782.996 220.067 782.65 220.623 782.403C221.178 782.156 221.778 782.032 222.422 782.032C222.958 782.032 223.476 782.116 223.976 782.284C224.475 782.452 224.911 782.697 225.285 783.019C225.663 783.341 225.933 783.728 226.097 784.181L224.487 784.762C224.421 784.575 224.288 784.405 224.088 784.251C223.887 784.097 223.642 783.976 223.353 783.887C223.063 783.794 222.753 783.747 222.422 783.747C222.09 783.742 221.775 783.796 221.477 783.908C221.183 784.015 220.942 784.162 220.756 784.349C220.569 784.536 220.476 784.75 220.476 784.993C220.476 785.306 220.562 785.541 220.735 785.7C220.912 785.859 221.148 785.975 221.442 786.05C221.736 786.12 222.062 786.185 222.422 786.246C223.075 786.349 223.679 786.521 224.235 786.764C224.79 787.007 225.236 787.331 225.572 787.737C225.908 788.138 226.076 788.631 226.076 789.214C226.076 789.807 225.908 790.327 225.572 790.775C225.236 791.218 224.79 791.564 224.235 791.811C223.679 792.058 223.075 792.182 222.422 792.182Z" fill="white"/>
<g filter="url(#filter1_d_475_297)">
<path d="M284 310C292.284 310 299 316.716 299 325L299 629C299 637.284 292.284 644 284 644L105 644C96.7155 644 89.9997 637.284 89.9997 629L89.9998 325C89.9998 316.716 96.7155 310 105 310L284 310Z" fill="#42C2D1"/>
</g>
<mask id="mask0_475_297" style="mask-type:alpha" maskUnits="userSpaceOnUse" x="90" y="310" width="209" height="334">
<path d="M284 310C292.284 310 299 316.716 299 325L299 629C299 637.284 292.284 644 284 644L105 644C96.7157 644 90 637.284 90 629L90 325C90 316.716 96.7157 310 105 310L284 310Z" fill="#42C2D1"/>
</mask>
<g mask="url(#mask0_475_297)">
<rect opacity="0.1" x="378.203" y="660.196" width="260" height="260" rx="54" transform="rotate(135 378.203 660.196)" fill="white"/>
<rect opacity="0.1" x="378.203" y="592.5" width="260" height="260" rx="54" transform="rotate(135 378.203 592.5)" fill="white"/>
</g>
<g clip-path="url(#clip0_475_297)">
<path d="M287.383 617.896L291.502 625.994L282.843 634.1L287.383 617.896Z" fill="#008C44"/>
<path d="M284.531 617.896L288.645 625.994L279.99 634.1L284.531 617.896Z" fill="#F47920"/>
<path d="M218.5 631.152L222.606 616.5H229.17C231.22 616.5 232.592 616.821 233.288 617.485C233.985 618.149 234.114 619.217 233.697 620.725C233.484 621.542 233.089 622.303 232.534 622.949C231.966 623.569 231.26 624.048 230.475 624.351C231.083 624.435 231.602 624.822 231.859 625.371C232.063 625.881 232.041 626.624 231.793 627.605L231.296 629.653V629.71C231.149 630.282 231.194 630.59 231.429 630.616L231.278 631.157H226.831C226.844 630.814 226.875 630.502 226.902 630.247C226.924 630.04 226.96 629.838 227.013 629.636L227.426 628.172C227.634 627.411 227.647 626.879 227.452 626.576C227.257 626.264 226.817 626.106 226.13 626.106H224.27L222.845 631.152H218.5ZM225.193 622.8H227.19C227.723 622.839 228.251 622.734 228.726 622.496C229.085 622.241 229.334 621.863 229.423 621.437C229.569 620.922 229.534 620.566 229.325 620.364C229.116 620.162 228.624 620.056 227.843 620.056H225.961L225.193 622.8Z" fill="white"/>
<path d="M245.884 620.34L242.858 631.155H239.178L239.631 629.572C239.058 630.152 238.388 630.627 237.652 630.983C236.995 631.291 236.28 631.449 235.552 631.449C235.015 631.467 234.483 631.353 233.999 631.124C233.582 630.913 233.244 630.57 233.045 630.148C232.845 629.708 232.761 629.225 232.805 628.741C232.916 627.796 233.116 626.869 233.4 625.959L234.975 620.34H239.001L237.434 625.923C237.225 626.469 237.168 627.053 237.261 627.629C237.376 627.946 237.687 628.108 238.189 628.108C238.677 628.117 239.147 627.915 239.476 627.554C239.888 627.08 240.172 626.517 240.314 625.906L241.868 620.34H245.884Z" fill="white"/>
<path d="M244.428 631.152L248.529 616.5H254.17C255.142 616.474 256.114 616.553 257.064 616.733C257.659 616.843 258.218 617.102 258.688 617.485C259.181 617.933 259.51 618.535 259.621 619.19C259.727 619.999 259.656 620.817 259.407 621.595C259.044 623.081 258.196 624.409 256.998 625.367C255.759 626.259 254.255 626.721 252.719 626.668H250.078L248.831 631.152H244.428ZM251.086 623.09H252.506C253.172 623.138 253.838 623.024 254.446 622.76C254.849 622.488 255.129 622.07 255.231 621.595C255.391 621.032 255.347 620.641 255.111 620.421C254.88 620.202 254.29 620.092 253.349 620.092H251.929L251.086 623.09Z" fill="white"/>
<path d="M264.148 631.152L264.188 630.123C263.594 630.58 262.928 630.941 262.222 631.196C261.543 631.433 260.833 631.548 260.114 631.543C258.973 631.543 258.179 631.235 257.722 630.642C257.265 630.048 257.194 629.191 257.504 628.105C257.722 627.147 258.285 626.303 259.089 625.731C259.843 625.222 261.108 624.852 262.883 624.619C263.105 624.584 263.412 624.553 263.784 624.509C265.094 624.36 265.83 624.013 265.99 623.45C266.092 623.212 266.03 622.94 265.83 622.773C265.515 622.597 265.151 622.522 264.792 622.557C264.428 622.544 264.068 622.632 263.762 622.821C263.469 623.019 263.252 623.305 263.141 623.635H259.209C259.524 622.465 260.305 621.472 261.374 620.883C262.457 620.258 263.882 619.959 265.653 619.959C266.403 619.946 267.157 620.03 267.885 620.206C268.418 620.311 268.915 620.535 269.341 620.869C269.701 621.168 269.94 621.586 270.02 622.043C270.073 622.676 269.989 623.314 269.785 623.911L268.098 629.939C268.045 630.11 268.036 630.295 268.063 630.47C268.089 630.62 268.169 630.752 268.285 630.849L268.196 631.152H264.148ZM265.125 626.325C264.579 626.527 264.02 626.699 263.456 626.835C262.373 627.121 261.761 627.507 261.632 627.982C261.534 628.224 261.57 628.497 261.729 628.703C261.938 628.897 262.218 628.989 262.502 628.958C263.079 628.985 263.647 628.809 264.104 628.461C264.557 628.035 264.876 627.486 265.014 626.879C265.049 626.725 265.085 626.615 265.103 626.532L265.125 626.325Z" fill="white"/>
<path d="M268.219 635.415L269.111 632.214H270.261C270.576 632.232 270.886 632.157 271.162 632.003C271.397 631.832 271.557 631.581 271.614 631.3C271.659 631.15 271.69 630.992 271.703 630.838C271.716 630.64 271.716 630.443 271.703 630.245L271.091 620.34H275.165L275.098 626.899L278.653 620.34H282.439L276.155 631.102C275.44 632.302 274.921 633.129 274.592 633.581C274.33 633.964 274.015 634.307 273.66 634.606C273.283 634.922 272.848 635.155 272.373 635.296C271.672 635.459 270.953 635.525 270.234 635.503C269.959 635.503 269.639 635.498 269.297 635.481C268.956 635.463 268.592 635.441 268.219 635.415Z" fill="white"/>
</g>
<g clip-path="url(#clip1_475_297)">
<path d="M269.503 379.5C269.221 379.429 268.975 379.304 268.799 379.055C268.499 378.646 268.446 378.219 268.675 377.775C268.851 377.419 269.063 377.063 269.239 376.708C270.049 375.054 270.595 373.329 270.894 371.515C271.017 370.803 271.088 370.074 271.123 369.345C271.158 368.687 271.158 368.046 271.105 367.388C271 365.592 270.648 363.867 270.031 362.177C269.679 361.199 269.239 360.257 268.728 359.35C268.464 358.887 268.446 358.425 268.763 357.962C268.939 357.713 269.204 357.571 269.503 357.5H269.926C270.295 357.589 270.577 357.785 270.753 358.122C271.51 359.456 272.127 360.861 272.567 362.338C273.095 364.08 273.412 365.859 273.465 367.673C273.5 368.669 273.483 369.683 273.359 370.679C273.271 371.532 273.13 372.368 272.937 373.186C272.496 375.143 271.775 376.975 270.806 378.717C270.595 379.091 270.331 379.376 269.89 379.482H269.503V379.5Z" fill="white"/>
<path d="M256.103 364.756C256.173 364.472 256.296 364.223 256.525 364.027C257.071 363.582 257.863 363.707 258.251 364.294C258.761 365.059 259.114 365.894 259.307 366.784C259.448 367.424 259.519 368.082 259.501 368.722C259.448 370.145 259.043 371.443 258.268 372.635C257.987 373.08 257.564 373.275 257.053 373.168C256.56 373.08 256.243 372.759 256.12 372.261C256.12 372.244 256.103 372.226 256.103 372.208V371.781C256.155 371.586 256.243 371.408 256.349 371.23C256.913 370.305 257.177 369.309 257.141 368.224C257.106 367.317 256.842 366.499 256.367 365.734C256.261 365.557 256.155 365.361 256.103 365.147V364.756Z" fill="white"/>
<path d="M268.658 368.491C268.64 370.91 268.147 373.204 267.161 375.392C266.95 375.854 266.721 376.299 266.474 376.743C266.193 377.224 265.647 377.437 265.118 377.295C264.59 377.135 264.256 376.655 264.273 376.103C264.273 375.89 264.344 375.712 264.449 375.516C264.942 374.645 265.347 373.72 265.647 372.76C265.928 371.853 266.122 370.946 266.21 370.003C266.263 369.434 266.298 368.865 266.298 368.296C266.263 366.375 265.876 364.525 265.101 362.764C264.89 362.302 264.661 361.857 264.414 361.395C264.027 360.684 264.414 359.83 265.206 359.652C265.682 359.545 266.193 359.777 266.457 360.203C266.932 361.004 267.32 361.857 267.637 362.729C268.024 363.778 268.306 364.863 268.464 365.984C268.552 366.553 268.605 367.122 268.623 367.691C268.64 367.975 268.658 368.242 268.658 368.491Z" fill="white"/>
<path d="M264.009 368.42C263.991 370.465 263.516 372.404 262.583 374.236C262.512 374.36 262.442 374.485 262.371 374.609C262.125 375.054 261.597 375.285 261.121 375.178C260.61 375.071 260.258 374.662 260.188 374.147C260.153 373.88 260.205 373.649 260.329 373.417C260.751 372.653 261.086 371.852 261.297 370.999C261.456 370.412 261.544 369.807 261.597 369.202C261.632 368.704 261.649 368.224 261.614 367.726C261.526 366.392 261.192 365.112 260.593 363.92C260.505 363.725 260.399 363.547 260.293 363.351C259.888 362.551 260.417 361.626 261.297 361.608C261.755 361.59 262.107 361.804 262.336 362.195C262.97 363.298 263.41 364.472 263.674 365.717C263.833 366.41 263.921 367.122 263.939 367.833C263.991 368.046 264.009 368.242 264.009 368.42Z" fill="white"/>
<path d="M243.16 367.584L237.596 364.098C237.367 363.956 237.12 363.885 236.874 363.885C236.152 363.885 235.5 364.454 235.5 365.272V372.261C235.5 373.08 236.169 373.649 236.874 373.649C237.12 373.649 237.367 373.578 237.596 373.435L243.16 369.949C244.023 369.398 244.023 368.135 243.16 367.584Z" fill="#F4832C"/>
<path d="M249.165 367.584L243.6 364.098C243.371 363.956 243.125 363.885 242.878 363.885C242.35 363.885 241.84 364.205 241.611 364.703L244.005 366.215C244.886 366.766 245.414 367.726 245.414 368.776C245.414 369.825 244.886 370.785 244.005 371.337L241.611 372.848C241.84 373.346 242.333 373.666 242.878 373.666C243.125 373.666 243.371 373.595 243.6 373.453L249.165 369.949C250.028 369.398 250.028 368.135 249.165 367.584Z" fill="#008041"/>
</g>
<path d="M129.02 345.2L126.5 344.84L126.5 348.116L123.572 347.708L123.572 344.432L114.5 343.16L114.5 340.232L123.572 341.504L123.572 340.196L126.5 340.604L126.5 341.912L129.02 342.272C129.708 342.368 130.336 342.624 130.904 343.04C131.48 343.464 131.936 343.988 132.272 344.612C132.616 345.236 132.788 345.896 132.788 346.592C132.788 347.096 132.684 347.58 132.476 348.044C132.268 348.508 131.948 348.9 131.516 349.22L129.452 346.832C129.588 346.776 129.688 346.688 129.752 346.568C129.824 346.448 129.86 346.32 129.86 346.184C129.86 345.944 129.776 345.728 129.608 345.536C129.448 345.344 129.252 345.232 129.02 345.2ZM114.5 348.635L132.5 351.155L132.5 354.083L114.5 351.563L114.5 348.635ZM114.188 359.48C114.188 358.376 114.472 357.408 115.04 356.576C115.608 355.752 116.368 355.136 117.32 354.728C118.28 354.328 119.34 354.208 120.5 354.368C121.38 354.488 122.2 354.756 122.96 355.172C123.728 355.596 124.4 356.124 124.976 356.756C125.56 357.388 126.016 358.088 126.344 358.856C126.672 359.632 126.836 360.432 126.836 361.256C126.836 362.36 126.552 363.324 125.984 364.148C125.416 364.98 124.652 365.6 123.692 366.008C122.732 366.416 121.668 366.536 120.5 366.368C119.628 366.248 118.812 365.976 118.052 365.552C117.292 365.136 116.62 364.612 116.036 363.98C115.46 363.348 115.008 362.648 114.68 361.88C114.352 361.112 114.188 360.312 114.188 359.48ZM117.116 359.888C117.116 360.472 117.272 361.016 117.584 361.52C117.896 362.024 118.308 362.448 118.82 362.792C119.332 363.144 119.892 363.36 120.5 363.44C121.124 363.528 121.692 363.468 122.204 363.26C122.724 363.06 123.136 362.748 123.44 362.324C123.752 361.9 123.908 361.408 123.908 360.848C123.908 360.272 123.752 359.728 123.44 359.216C123.128 358.712 122.712 358.288 122.192 357.944C121.672 357.6 121.108 357.384 120.5 357.296C119.868 357.208 119.296 357.268 118.784 357.476C118.272 357.684 117.864 358 117.56 358.424C117.264 358.848 117.116 359.336 117.116 359.888ZM114.5 373.444L126.5 375.124L126.5 378.052L125.432 377.908C125.864 378.38 126.204 378.916 126.452 379.516C126.708 380.116 126.836 380.744 126.836 381.4C126.836 382.232 126.64 382.968 126.248 383.608C125.856 384.256 125.332 384.744 124.676 385.072C125.332 385.584 125.856 386.216 126.248 386.968C126.64 387.72 126.836 388.512 126.836 389.344C126.836 390.224 126.62 390.992 126.188 391.648C125.764 392.304 125.192 392.796 124.472 393.124C123.76 393.452 122.964 393.552 122.084 393.424L114.5 392.368L114.5 389.44L121.304 390.4C121.768 390.464 122.192 390.408 122.576 390.232C122.968 390.056 123.28 389.792 123.512 389.44C123.752 389.096 123.872 388.688 123.872 388.216C123.872 387.744 123.756 387.3 123.524 386.884C123.3 386.476 122.996 386.132 122.612 385.852C122.228 385.572 121.792 385.396 121.304 385.324L114.5 384.364L114.5 381.436L121.304 382.396C121.792 382.468 122.228 382.416 122.612 382.24C122.996 382.064 123.3 381.8 123.524 381.448C123.756 381.096 123.872 380.684 123.872 380.212C123.872 379.756 123.752 379.32 123.512 378.904C123.28 378.488 122.968 378.136 122.576 377.848C122.192 377.568 121.768 377.396 121.304 377.332L114.5 376.372L114.5 373.444ZM114.188 399.769C114.188 398.665 114.472 397.697 115.04 396.865C115.608 396.041 116.368 395.425 117.32 395.017C118.28 394.617 119.34 394.497 120.5 394.657C121.38 394.777 122.2 395.045 122.96 395.461C123.728 395.885 124.4 396.413 124.976 397.045C125.56 397.677 126.016 398.377 126.344 399.145C126.672 399.921 126.836 400.721 126.836 401.545C126.836 402.649 126.552 403.613 125.984 404.437C125.416 405.269 124.652 405.889 123.692 406.297C122.732 406.705 121.668 406.825 120.5 406.657C119.628 406.537 118.812 406.265 118.052 405.841C117.292 405.425 116.62 404.901 116.036 404.269C115.46 403.637 115.008 402.937 114.68 402.169C114.352 401.401 114.188 400.601 114.188 399.769ZM117.116 400.177C117.116 400.761 117.272 401.305 117.584 401.809C117.896 402.313 118.308 402.737 118.82 403.081C119.332 403.433 119.892 403.649 120.5 403.729C121.124 403.817 121.692 403.757 122.204 403.549C122.724 403.349 123.136 403.037 123.44 402.613C123.752 402.189 123.908 401.697 123.908 401.137C123.908 400.561 123.752 400.017 123.44 399.505C123.128 399.001 122.712 398.577 122.192 398.233C121.672 397.889 121.108 397.673 120.5 397.585C119.868 397.497 119.296 397.557 118.784 397.765C118.272 397.973 117.864 398.289 117.56 398.713C117.264 399.137 117.116 399.625 117.116 400.177ZM122.084 419.734L114.5 418.678L114.5 415.75L121.316 416.698C121.788 416.77 122.216 416.714 122.6 416.53C122.992 416.354 123.3 416.086 123.524 415.726C123.756 415.374 123.872 414.962 123.872 414.49C123.872 414.018 123.756 413.57 123.524 413.146C123.3 412.73 122.992 412.382 122.6 412.102C122.216 411.822 121.788 411.646 121.316 411.574L114.5 410.626L114.5 407.698L126.5 409.366L126.5 412.294L125.432 412.15C125.864 412.622 126.204 413.158 126.452 413.758C126.708 414.366 126.836 414.998 126.836 415.654C126.836 416.526 126.62 417.29 126.188 417.946C125.764 418.602 125.192 419.094 124.472 419.422C123.76 419.758 122.964 419.862 122.084 419.734ZM114.188 426.066C114.188 424.962 114.472 423.994 115.04 423.162C115.608 422.338 116.372 421.722 117.332 421.314C118.292 420.914 119.352 420.794 120.512 420.954C121.384 421.074 122.2 421.342 122.96 421.758C123.728 422.182 124.4 422.71 124.976 423.342C125.56 423.974 126.016 424.674 126.344 425.442C126.672 426.218 126.836 427.018 126.836 427.842C126.836 428.778 126.636 429.606 126.236 430.326C125.844 431.054 125.304 431.642 124.616 432.09C123.928 432.538 123.144 432.822 122.264 432.942C121.384 433.07 120.464 432.998 119.504 432.726L119.504 423.966C119.056 424.006 118.652 424.13 118.292 424.338C117.94 424.546 117.656 424.83 117.44 425.19C117.232 425.55 117.124 425.978 117.116 426.474C117.108 426.986 117.228 427.47 117.476 427.926C117.732 428.382 118.076 428.778 118.508 429.114L117.812 432.006C116.748 431.374 115.876 430.526 115.196 429.462C114.524 428.398 114.188 427.266 114.188 426.066ZM121.7 424.17L121.7 430.074C122.18 430.05 122.612 429.922 122.996 429.69C123.388 429.466 123.7 429.162 123.932 428.778C124.164 428.402 124.28 427.974 124.28 427.494C124.28 427.006 124.164 426.542 123.932 426.102C123.708 425.662 123.4 425.274 123.008 424.938C122.624 424.602 122.188 424.346 121.7 424.17ZM126.5 443.145L126.5 446.253L108.5 437.157L108.5 434.049L114.5 437.073L126.5 434.433L126.5 437.637L118.508 439.089L126.5 443.145Z" fill="white"/>
<rect x="199.5" y="350.5" width="27" height="38" rx="5" fill="url(#paint0_linear_475_297)"/>
<rect x="199.75" y="350.75" width="26.5" height="37.5" rx="4.75" stroke="black" stroke-opacity="0.5" stroke-width="0.5"/>
<line x1="199.5" y1="364.25" x2="226.5" y2="364.25" stroke="black" stroke-opacity="0.5" stroke-width="0.5"/>
<line x1="199.5" y1="376.25" x2="221" y2="376.25" stroke="black" stroke-opacity="0.5" stroke-width="0.5"/>
<line x1="205.75" y1="376.5" x2="205.75" y2="388.5" stroke="black" stroke-opacity="0.5" stroke-width="0.5"/>
<line x1="205.75" y1="350.5" x2="205.75" y2="364.5" stroke="black" stroke-opacity="0.5" stroke-width="0.5"/>
<line x1="212.75" y1="350.5" x2="212.75" y2="364.5" stroke="black" stroke-opacity="0.5" stroke-width="0.5"/>
<line x1="220.75" y1="350.5" x2="220.75" y2="364.5" stroke="black" stroke-opacity="0.5" stroke-width="0.5"/>
<line x1="213.75" y1="376.5" x2="213.75" y2="388.5" stroke="black" stroke-opacity="0.5" stroke-width="0.5"/>
<line x1="220.75" y1="376.5" x2="220.75" y2="388.5" stroke="black" stroke-opacity="0.5" stroke-width="0.5"/>
<defs>
<filter id="filter0_d_475_297" x="26" y="757" width="338" height="62" filterUnits="userSpaceOnUse" color-interpolation-filters="sRGB">
<feFlood flood-opacity="0" result="BackgroundImageFix"/>
<feColorMatrix in="SourceAlpha" type="matrix" values="0 0 0 0 0 0 0 0 0 0 0 0 0 0 0 0 0 0 127 0" result="hardAlpha"/>
<feOffset dy="1"/>
<feGaussianBlur stdDeviation="1"/>
<feColorMatrix type="matrix" values="0 0 0 0 0 0 0 0 0 0 0 0 0 0 0 0 0 0 0.02 0"/>
<feBlend mode="normal" in2="BackgroundImageFix" result="effect1_dropShadow_475_297"/>
<feBlend mode="normal" in="SourceGraphic" in2="effect1_dropShadow_475_297" result="shape"/>
</filter>
<filter id="filter1_d_475_297" x="85.9998" y="306" width="225" height="350" filterUnits="userSpaceOnUse" color-interpolation-filters="sRGB">
<feFlood flood-opacity="0" result="BackgroundImageFix"/>
<feColorMatrix in="SourceAlpha" type="matrix" values="0 0 0 0 0 0 0 0 0 0 0 0 0 0 0 0 0 0 127 0" result="hardAlpha"/>
<feOffset dx="4" dy="4"/>
<feGaussianBlur stdDeviation="4"/>
<feComposite in2="hardAlpha" operator="out"/>
<feColorMatrix type="matrix" values="0 0 0 0 0 0 0 0 0 0 0 0 0 0 0 0 0 0 0.15 0"/>
<feBlend mode="normal" in2="BackgroundImageFix" result="effect1_dropShadow_475_297"/>
<feBlend mode="normal" in="SourceGraphic" in2="effect1_dropShadow_475_297" result="shape"/>
</filter>
<linearGradient id="paint0_linear_475_297" x1="198.064" y1="350.5" x2="236.683" y2="366.02" gradientUnits="userSpaceOnUse">
<stop stop-color="#E2BF43"/>
<stop offset="0.367708" stop-color="#EEE6C9"/>
<stop offset="1" stop-color="#DAB944"/>
</linearGradient>
<clipPath id="clip0_475_297">
<rect width="73" height="19" fill="white" transform="translate(218.5 616.5)"/>
</clipPath>
<clipPath id="clip1_475_297">
<rect width="38" height="22" fill="white" transform="translate(235.5 357.5)"/>
</clipPath>
</defs>
</svg>
