<svg width="284" height="65" viewBox="0 0 284 65" fill="none" xmlns="http://www.w3.org/2000/svg">
<path d="M14.2 10.28L13.24 17H21.976L20.888 24.808H12.152L8.76 49H0.952L4.344 24.808H0.856L1.944 17H5.432L6.392 10.28C6.648 8.44533 7.33067 6.77067 8.44 5.256C9.57067 3.72 10.968 2.504 12.632 1.608C14.296 0.690665 16.056 0.231998 17.912 0.231998C19.256 0.231998 20.5467 0.509332 21.784 1.064C23.0213 1.61866 24.0667 2.472 24.92 3.624L18.552 9.128C18.4027 8.76533 18.168 8.49867 17.848 8.328C17.528 8.136 17.1867 8.04 16.824 8.04C16.184 8.04 15.608 8.264 15.096 8.712C14.584 9.13866 14.2853 9.66133 14.2 10.28ZM23.361 49L30.081 0.999996H37.889L31.169 49H23.361ZM52.281 49.832C49.337 49.832 46.7557 49.0747 44.537 47.56C42.3397 46.0453 40.697 44.0187 39.609 41.48C38.5423 38.92 38.2223 36.0933 38.649 33C38.969 30.6533 39.6837 28.4667 40.793 26.44C41.9237 24.392 43.3317 22.6 45.017 21.064C46.7023 19.5067 48.569 18.2907 50.617 17.416C52.6863 16.5413 54.8197 16.104 57.017 16.104C59.961 16.104 62.5317 16.8613 64.729 18.376C66.9477 19.8907 68.601 21.928 69.689 24.488C70.777 27.048 71.097 29.8853 70.649 33C70.329 35.3253 69.6037 37.5013 68.473 39.528C67.3637 41.5547 65.9663 43.3467 64.281 44.904C62.5957 46.44 60.729 47.6453 58.681 48.52C56.633 49.3947 54.4997 49.832 52.281 49.832ZM53.369 42.024C54.9263 42.024 56.377 41.608 57.721 40.776C59.065 39.944 60.1957 38.8453 61.113 37.48C62.0517 36.1147 62.6277 34.6213 62.841 33C63.0757 31.336 62.9157 29.8213 62.361 28.456C61.8277 27.0693 60.9957 25.9707 59.865 25.16C58.7343 24.328 57.4223 23.912 55.929 23.912C54.393 23.912 52.9423 24.328 51.577 25.16C50.233 25.992 49.1023 27.1013 48.185 28.488C47.2677 29.8747 46.6917 31.3787 46.457 33C46.2223 34.6853 46.3823 36.2107 46.937 37.576C47.4917 38.9413 48.3343 40.0293 49.465 40.84C50.5957 41.6293 51.897 42.024 53.369 42.024ZM89.5165 49L93.9965 17H101.805L101.421 19.848C102.679 18.696 104.109 17.7893 105.708 17.128C107.309 16.4453 108.983 16.104 110.733 16.104C112.951 16.104 114.914 16.6267 116.621 17.672C118.349 18.7173 119.65 20.1147 120.525 21.864C121.89 20.1147 123.575 18.7173 125.581 17.672C127.586 16.6267 129.698 16.104 131.917 16.104C134.263 16.104 136.311 16.68 138.061 17.832C139.81 18.9627 141.122 20.488 141.997 22.408C142.871 24.3067 143.138 26.4293 142.797 28.776L139.981 49H132.173L134.733 30.856C134.903 29.6187 134.754 28.488 134.285 27.464C133.815 26.4187 133.111 25.5867 132.173 24.968C131.255 24.328 130.167 24.008 128.909 24.008C127.65 24.008 126.466 24.3173 125.357 24.936C124.269 25.5333 123.351 26.344 122.604 27.368C121.858 28.392 121.389 29.5547 121.197 30.856L118.637 49H110.829L113.389 30.856C113.581 29.5547 113.442 28.392 112.973 27.368C112.503 26.344 111.799 25.5333 110.861 24.936C109.922 24.3173 108.823 24.008 107.565 24.008C106.349 24.008 105.186 24.328 104.077 24.968C102.967 25.5867 102.029 26.4187 101.261 27.464C100.514 28.488 100.055 29.6187 99.8845 30.856L97.3245 49H89.5165ZM159.719 49.832C156.775 49.832 154.193 49.0747 151.975 47.56C149.777 46.0453 148.135 44.0187 147.047 41.48C145.98 38.92 145.66 36.0933 146.087 33C146.407 30.6533 147.121 28.4667 148.231 26.44C149.361 24.392 150.769 22.6 152.455 21.064C154.14 19.5067 156.007 18.2907 158.055 17.416C160.124 16.5413 162.257 16.104 164.455 16.104C167.399 16.104 169.969 16.8613 172.167 18.376C174.385 19.8907 176.039 21.928 177.127 24.488C178.215 27.048 178.535 29.8853 178.087 33C177.767 35.3253 177.041 37.5013 175.911 39.528C174.801 41.5547 173.404 43.3467 171.719 44.904C170.033 46.44 168.167 47.6453 166.119 48.52C164.071 49.3947 161.937 49.832 159.719 49.832ZM160.807 42.024C162.364 42.024 163.815 41.608 165.159 40.776C166.503 39.944 167.633 38.8453 168.551 37.48C169.489 36.1147 170.065 34.6213 170.279 33C170.513 31.336 170.353 29.8213 169.799 28.456C169.265 27.0693 168.433 25.9707 167.303 25.16C166.172 24.328 164.86 23.912 163.367 23.912C161.831 23.912 160.38 24.328 159.015 25.16C157.671 25.992 156.54 27.1013 155.623 28.488C154.705 29.8747 154.129 31.3787 153.895 33C153.66 34.6853 153.82 36.2107 154.375 37.576C154.929 38.9413 155.772 40.0293 156.903 40.84C158.033 41.6293 159.335 42.024 160.807 42.024ZM212.957 28.776L210.141 49H202.333L204.861 30.824C205.053 29.5653 204.904 28.424 204.413 27.4C203.944 26.3547 203.229 25.5333 202.269 24.936C201.33 24.3173 200.232 24.008 198.973 24.008C197.714 24.008 196.52 24.3173 195.389 24.936C194.28 25.5333 193.352 26.3547 192.605 27.4C191.858 28.424 191.389 29.5653 191.197 30.824L188.669 49H180.861L185.309 17H193.117L192.733 19.848C193.992 18.696 195.421 17.7893 197.021 17.128C198.642 16.4453 200.328 16.104 202.077 16.104C204.402 16.104 206.44 16.68 208.189 17.832C209.938 18.9627 211.25 20.488 212.125 22.408C213.021 24.3067 213.298 26.4293 212.957 28.776ZM229.844 49.832C226.9 49.832 224.318 49.0747 222.1 47.56C219.902 46.0453 218.26 44.008 217.172 41.448C216.105 38.888 215.785 36.0613 216.212 32.968C216.532 30.6427 217.246 28.4667 218.356 26.44C219.486 24.392 220.894 22.6 222.58 21.064C224.265 19.5067 226.132 18.2907 228.18 17.416C230.249 16.5413 232.382 16.104 234.58 16.104C237.076 16.104 239.284 16.6373 241.204 17.704C243.145 18.7493 244.713 20.1893 245.908 22.024C247.102 23.8587 247.86 25.9493 248.18 28.296C248.521 30.6427 248.329 33.096 247.604 35.656H224.244C224.35 36.8507 224.681 37.928 225.236 38.888C225.79 39.8267 226.548 40.584 227.508 41.16C228.468 41.7147 229.609 42.0027 230.932 42.024C232.297 42.0453 233.588 41.7253 234.804 41.064C236.02 40.3813 237.076 39.464 237.972 38.312L245.684 40.168C243.998 43.0053 241.737 45.3307 238.9 47.144C236.062 48.936 233.044 49.832 229.844 49.832ZM224.788 29.8H240.532C240.468 28.52 240.126 27.368 239.508 26.344C238.91 25.2987 238.1 24.4667 237.076 23.848C236.073 23.2293 234.932 22.92 233.652 22.92C232.35 22.92 231.113 23.2293 229.94 23.848C228.766 24.4453 227.732 25.2667 226.836 26.312C225.94 27.336 225.257 28.4987 224.788 29.8ZM275.386 17H283.674L259.418 65H251.13L259.194 49L252.154 17H260.698L264.57 38.312L275.386 17Z" fill="black"/>
</svg>
