<svg width="225" height="350" viewBox="0 0 225 350" fill="none" xmlns="http://www.w3.org/2000/svg">
<g filter="url(#filter0_d_453_1034)">
<path d="M198 4C206.284 4 213 10.7157 213 19L213 323C213 331.284 206.284 338 198 338L19 338C10.7157 338 3.99999 331.284 3.99999 323L4 19C4 10.7157 10.7157 3.99999 19 3.99999L198 4Z" fill="#42C2D1"/>
</g>
<mask id="mask0_453_1034" style="mask-type:alpha" maskUnits="userSpaceOnUse" x="4" y="4" width="210" height="334">
<path d="M198 4C206.285 4 213 10.7157 213 19L213 323C213 331.284 206.285 338 198 338L19.0002 338C10.716 338 4.00023 331.284 4.00023 323L4.00024 19C4.00024 10.7157 10.716 3.99999 19.0002 3.99999L198 4Z" fill="#42C2D1"/>
</mask>
<g mask="url(#mask0_453_1034)">
<rect opacity="0.1" x="292.203" y="354.196" width="260" height="260" rx="54" transform="rotate(135 292.203 354.196)" fill="white"/>
<rect opacity="0.1" x="292.203" y="286.5" width="260" height="260" rx="54" transform="rotate(135 292.203 286.5)" fill="white"/>
</g>
<g clip-path="url(#clip0_453_1034)">
<path d="M201.384 311.896L205.502 319.994L196.843 328.101L201.384 311.896Z" fill="#008C44"/>
<path d="M198.531 311.896L202.645 319.994L193.99 328.101L198.531 311.896Z" fill="#F47920"/>
<path d="M132.5 325.152L136.606 310.5H143.17C145.22 310.5 146.592 310.821 147.289 311.485C147.985 312.149 148.114 313.217 147.697 314.725C147.484 315.543 147.089 316.303 146.534 316.949C145.966 317.569 145.26 318.048 144.475 318.352C145.083 318.435 145.602 318.822 145.86 319.372C146.064 319.882 146.042 320.624 145.793 321.605L145.296 323.653V323.711C145.149 324.282 145.194 324.59 145.429 324.616L145.278 325.157H140.831C140.844 324.814 140.875 324.502 140.902 324.247C140.924 324.04 140.96 323.838 141.013 323.636L141.426 322.172C141.634 321.411 141.648 320.879 141.452 320.576C141.257 320.264 140.818 320.106 140.13 320.106H138.27L136.846 325.152H132.5ZM139.193 316.8H141.191C141.723 316.839 142.251 316.734 142.726 316.497C143.086 316.242 143.334 315.864 143.423 315.437C143.569 314.923 143.534 314.567 143.325 314.364C143.117 314.162 142.624 314.057 141.843 314.057H139.961L139.193 316.8Z" fill="white"/>
<path d="M159.885 314.341L156.858 325.155H153.179L153.631 323.573C153.059 324.153 152.389 324.628 151.652 324.984C150.995 325.291 150.28 325.45 149.553 325.45C149.015 325.467 148.483 325.353 147.999 325.124C147.582 324.913 147.245 324.57 147.045 324.148C146.845 323.709 146.761 323.225 146.805 322.742C146.916 321.797 147.116 320.869 147.4 319.959L148.976 314.341H153.001L151.434 319.924C151.226 320.469 151.168 321.054 151.261 321.629C151.377 321.946 151.687 322.109 152.189 322.109C152.677 322.117 153.147 321.915 153.476 321.555C153.889 321.08 154.173 320.517 154.315 319.906L155.868 314.341H159.885Z" fill="white"/>
<path d="M158.429 325.152L162.53 310.5H168.171C169.143 310.474 170.115 310.553 171.064 310.733C171.659 310.843 172.218 311.103 172.689 311.485C173.181 311.933 173.51 312.536 173.621 313.191C173.727 314 173.656 314.817 173.408 315.595C173.044 317.081 172.196 318.409 170.998 319.367C169.76 320.26 168.255 320.721 166.719 320.668H164.079L162.831 325.152H158.429ZM165.086 317.09H166.506C167.172 317.138 167.838 317.024 168.446 316.76C168.85 316.488 169.129 316.07 169.231 315.595C169.391 315.033 169.347 314.641 169.112 314.422C168.881 314.202 168.29 314.092 167.35 314.092H165.929L165.086 317.09Z" fill="white"/>
<path d="M178.149 325.152L178.189 324.123C177.594 324.581 176.928 324.941 176.222 325.196C175.543 325.433 174.833 325.548 174.114 325.543C172.974 325.543 172.179 325.236 171.722 324.642C171.265 324.049 171.194 323.191 171.505 322.106C171.722 321.147 172.286 320.303 173.089 319.732C173.843 319.222 175.108 318.852 176.884 318.619C177.106 318.584 177.412 318.553 177.785 318.51C179.094 318.36 179.831 318.013 179.99 317.45C180.093 317.213 180.03 316.94 179.831 316.773C179.516 316.597 179.152 316.522 178.792 316.558C178.428 316.544 178.069 316.632 177.762 316.821C177.47 317.019 177.252 317.305 177.141 317.635H173.209C173.524 316.465 174.305 315.472 175.375 314.883C176.458 314.258 177.882 313.96 179.653 313.96C180.403 313.946 181.158 314.03 181.886 314.206C182.418 314.311 182.915 314.535 183.341 314.87C183.701 315.168 183.94 315.586 184.02 316.043C184.074 316.676 183.989 317.314 183.785 317.912L182.099 323.939C182.045 324.11 182.036 324.295 182.063 324.471C182.09 324.62 182.17 324.752 182.285 324.849L182.196 325.152H178.149ZM179.125 320.325C178.579 320.527 178.02 320.699 177.456 320.835C176.373 321.121 175.761 321.508 175.632 321.982C175.534 322.224 175.57 322.497 175.73 322.703C175.938 322.897 176.218 322.989 176.502 322.958C177.079 322.985 177.647 322.809 178.104 322.462C178.557 322.035 178.876 321.486 179.014 320.879C179.05 320.725 179.085 320.615 179.103 320.532L179.125 320.325Z" fill="white"/>
<path d="M182.219 329.415L183.111 326.215H184.261C184.576 326.232 184.887 326.157 185.162 326.004C185.397 325.832 185.557 325.582 185.614 325.3C185.659 325.151 185.69 324.992 185.703 324.839C185.717 324.641 185.717 324.443 185.703 324.245L185.091 314.341H189.165L189.098 320.9L192.654 314.341H196.439L190.155 325.102C189.44 326.303 188.921 327.129 188.593 327.582C188.331 327.964 188.016 328.307 187.661 328.606C187.283 328.923 186.848 329.156 186.373 329.296C185.672 329.459 184.953 329.525 184.234 329.503C183.959 329.503 183.639 329.498 183.298 329.481C182.956 329.463 182.592 329.441 182.219 329.415Z" fill="white"/>
</g>
<g clip-path="url(#clip1_453_1034)">
<path d="M183.503 73.5C183.221 73.4289 182.975 73.3044 182.799 73.0554C182.5 72.6463 182.447 72.2195 182.676 71.7749C182.852 71.4192 183.063 71.0635 183.239 70.7078C184.049 69.0538 184.595 67.3286 184.894 65.5146C185.018 64.8032 185.088 64.074 185.123 63.3448C185.158 62.6867 185.158 62.0465 185.106 61.3884C185 59.5922 184.648 57.867 184.031 56.1774C183.679 55.1993 183.239 54.2567 182.728 53.3496C182.464 52.8872 182.447 52.4248 182.764 51.9624C182.94 51.7134 183.204 51.5711 183.503 51.5H183.926C184.296 51.5889 184.577 51.7846 184.753 52.1225C185.511 53.4563 186.127 54.8614 186.567 56.3375C187.095 58.0804 187.412 59.8589 187.465 61.673C187.5 62.669 187.483 63.6827 187.36 64.6787C187.272 65.5323 187.131 66.3682 186.937 67.1863C186.497 69.1427 185.775 70.9745 184.806 72.7175C184.595 73.0909 184.331 73.3755 183.891 73.4822H183.503V73.5Z" fill="white"/>
<path d="M170.103 58.7563C170.173 58.4717 170.296 58.2227 170.525 58.0271C171.071 57.5825 171.864 57.707 172.251 58.2939C172.762 59.0586 173.114 59.8945 173.308 60.7838C173.448 61.424 173.519 62.0821 173.501 62.7223C173.448 64.1451 173.043 65.4434 172.269 66.635C171.987 67.0796 171.564 67.2753 171.054 67.1686C170.561 67.0796 170.244 66.7595 170.12 66.2615C170.12 66.2437 170.103 66.226 170.103 66.2082V65.7813C170.156 65.5857 170.244 65.4078 170.349 65.23C170.913 64.3052 171.177 63.3092 171.142 62.2243C171.106 61.3173 170.842 60.4992 170.367 59.7344C170.261 59.5566 170.156 59.361 170.103 59.1475V58.7563Z" fill="white"/>
<path d="M182.658 62.4911C182.64 64.9098 182.147 67.2041 181.161 69.3917C180.95 69.8541 180.721 70.2987 180.475 70.7433C180.193 71.2235 179.647 71.4369 179.119 71.2946C178.59 71.1346 178.256 70.6544 178.273 70.1031C178.273 69.8896 178.344 69.7118 178.45 69.5162C178.943 68.6447 179.348 67.7199 179.647 66.7595C179.929 65.8524 180.122 64.9454 180.21 64.0028C180.263 63.4337 180.298 62.8646 180.298 62.2955C180.263 60.3747 179.876 58.525 179.101 56.7643C178.89 56.3019 178.661 55.8573 178.414 55.3949C178.027 54.6835 178.414 53.8298 179.207 53.652C179.682 53.5453 180.193 53.7765 180.457 54.2033C180.932 55.0036 181.32 55.8573 181.637 56.7288C182.024 57.7781 182.306 58.863 182.464 59.9834C182.552 60.5525 182.605 61.1216 182.623 61.6908C182.64 61.9753 182.658 62.2421 182.658 62.4911Z" fill="white"/>
<path d="M178.009 62.42C177.992 64.4652 177.516 66.4038 176.583 68.2357C176.512 68.3601 176.442 68.4846 176.372 68.6091C176.125 69.0538 175.597 69.285 175.121 69.1783C174.611 69.0715 174.259 68.6625 174.188 68.1467C174.153 67.88 174.206 67.6487 174.329 67.4175C174.752 66.6528 175.086 65.8525 175.297 64.9988C175.456 64.4119 175.544 63.8072 175.597 63.2025C175.632 62.7045 175.65 62.2243 175.614 61.7264C175.526 60.3925 175.192 59.112 174.593 57.9204C174.505 57.7247 174.399 57.5469 174.294 57.3513C173.889 56.5509 174.417 55.6261 175.297 55.6083C175.755 55.5905 176.107 55.804 176.336 56.1952C176.97 57.2979 177.41 58.4717 177.675 59.7167C177.833 60.4103 177.921 61.1217 177.939 61.8331C177.992 62.0465 178.009 62.2421 178.009 62.42Z" fill="white"/>
<path d="M157.16 61.5841L151.596 58.0982C151.367 57.956 151.121 57.8848 150.874 57.8848C150.152 57.8848 149.5 58.4539 149.5 59.2721V66.2615C149.5 67.0797 150.17 67.6488 150.874 67.6488C151.121 67.6488 151.367 67.5776 151.596 67.4354L157.16 63.9495C158.023 63.3982 158.023 62.1354 157.16 61.5841Z" fill="#F4832C"/>
<path d="M163.165 61.5841L157.601 58.0982C157.372 57.956 157.125 57.8848 156.879 57.8848C156.35 57.8848 155.84 58.205 155.611 58.7029L158.006 60.2147C158.886 60.766 159.414 61.7264 159.414 62.7757C159.414 63.825 158.886 64.7854 158.006 65.3367L155.611 66.8484C155.84 67.3464 156.333 67.6666 156.879 67.6666C157.125 67.6666 157.372 67.5954 157.601 67.4531L163.165 63.9495C164.028 63.3982 164.028 62.1354 163.165 61.5841Z" fill="#008041"/>
</g>
<path d="M43.0205 39.2L40.5005 38.84L40.5005 42.116L37.5725 41.708L37.5725 38.432L28.5005 37.16L28.5005 34.232L37.5725 35.504L37.5725 34.196L40.5005 34.604L40.5005 35.912L43.0205 36.272C43.7085 36.368 44.3365 36.624 44.9045 37.04C45.4805 37.464 45.9365 37.988 46.2725 38.612C46.6165 39.236 46.7885 39.896 46.7885 40.592C46.7885 41.096 46.6845 41.58 46.4765 42.044C46.2685 42.508 45.9485 42.9 45.5165 43.22L43.4525 40.832C43.5885 40.776 43.6885 40.688 43.7525 40.568C43.8245 40.448 43.8605 40.32 43.8605 40.184C43.8605 39.944 43.7765 39.728 43.6085 39.536C43.4485 39.344 43.2525 39.232 43.0205 39.2ZM28.5005 42.6354L46.5005 45.1554L46.5005 48.0834L28.5005 45.5634L28.5005 42.6354ZM28.1885 53.4804C28.1885 52.3764 28.4725 51.4084 29.0405 50.5764C29.6085 49.7524 30.3685 49.1364 31.3205 48.7284C32.2805 48.3284 33.3405 48.2084 34.5005 48.3684C35.3805 48.4884 36.2005 48.7564 36.9605 49.1724C37.7285 49.5964 38.4005 50.1244 38.9765 50.7564C39.5605 51.3884 40.0165 52.0884 40.3445 52.8564C40.6725 53.6324 40.8365 54.4324 40.8365 55.2564C40.8365 56.3604 40.5525 57.3244 39.9845 58.1484C39.4165 58.9804 38.6525 59.6004 37.6925 60.0084C36.7325 60.4164 35.6685 60.5364 34.5005 60.3684C33.6285 60.2484 32.8125 59.9764 32.0525 59.5524C31.2925 59.1364 30.6205 58.6124 30.0365 57.9804C29.4605 57.3484 29.0085 56.6484 28.6805 55.8804C28.3525 55.1124 28.1885 54.3124 28.1885 53.4804ZM31.1165 53.8884C31.1165 54.4724 31.2725 55.0164 31.5845 55.5204C31.8965 56.0244 32.3085 56.4484 32.8205 56.7924C33.3325 57.1444 33.8925 57.3604 34.5005 57.4404C35.1245 57.5284 35.6925 57.4684 36.2045 57.2604C36.7245 57.0604 37.1365 56.7484 37.4405 56.3244C37.7525 55.9004 37.9085 55.4084 37.9085 54.8484C37.9085 54.2724 37.7525 53.7284 37.4405 53.2164C37.1285 52.7124 36.7125 52.2884 36.1925 51.9444C35.6725 51.6004 35.1085 51.3844 34.5005 51.2964C33.8685 51.2084 33.2965 51.2684 32.7845 51.4764C32.2725 51.6844 31.8645 52.0004 31.5605 52.4244C31.2645 52.8484 31.1165 53.3364 31.1165 53.8884ZM28.5005 67.4437L40.5005 69.1237L40.5005 72.0517L39.4325 71.9077C39.8645 72.3797 40.2045 72.9157 40.4525 73.5157C40.7085 74.1157 40.8365 74.7437 40.8365 75.3997C40.8365 76.2317 40.6405 76.9677 40.2485 77.6077C39.8565 78.2557 39.3325 78.7437 38.6765 79.0717C39.3325 79.5837 39.8565 80.2157 40.2485 80.9677C40.6405 81.7197 40.8365 82.5117 40.8365 83.3437C40.8365 84.2237 40.6205 84.9917 40.1885 85.6477C39.7645 86.3037 39.1925 86.7957 38.4725 87.1237C37.7605 87.4517 36.9645 87.5517 36.0845 87.4237L28.5005 86.3677L28.5005 83.4397L35.3045 84.3997C35.7685 84.4637 36.1925 84.4077 36.5765 84.2317C36.9685 84.0557 37.2805 83.7917 37.5125 83.4397C37.7525 83.0957 37.8725 82.6877 37.8725 82.2157C37.8725 81.7437 37.7565 81.2997 37.5245 80.8837C37.3005 80.4757 36.9965 80.1317 36.6125 79.8517C36.2285 79.5717 35.7925 79.3957 35.3045 79.3237L28.5005 78.3637L28.5005 75.4357L35.3045 76.3957C35.7925 76.4677 36.2285 76.4157 36.6125 76.2397C36.9965 76.0637 37.3005 75.7997 37.5245 75.4477C37.7565 75.0957 37.8725 74.6837 37.8725 74.2117C37.8725 73.7557 37.7525 73.3197 37.5125 72.9037C37.2805 72.4877 36.9685 72.1357 36.5765 71.8477C36.1925 71.5677 35.7685 71.3957 35.3045 71.3317L28.5005 70.3717L28.5005 67.4437ZM28.1885 93.7694C28.1885 92.6654 28.4725 91.6974 29.0405 90.8654C29.6085 90.0414 30.3685 89.4254 31.3205 89.0174C32.2805 88.6174 33.3405 88.4974 34.5005 88.6574C35.3805 88.7774 36.2005 89.0454 36.9605 89.4614C37.7285 89.8854 38.4005 90.4134 38.9765 91.0454C39.5605 91.6774 40.0165 92.3774 40.3445 93.1454C40.6725 93.9214 40.8365 94.7214 40.8365 95.5454C40.8365 96.6494 40.5525 97.6134 39.9845 98.4374C39.4165 99.2694 38.6525 99.8894 37.6925 100.297C36.7325 100.705 35.6685 100.825 34.5005 100.657C33.6285 100.537 32.8125 100.265 32.0525 99.8414C31.2925 99.4254 30.6205 98.9014 30.0365 98.2694C29.4605 97.6374 29.0085 96.9374 28.6805 96.1694C28.3525 95.4014 28.1885 94.6014 28.1885 93.7694ZM31.1165 94.1774C31.1165 94.7614 31.2725 95.3054 31.5845 95.8094C31.8965 96.3134 32.3085 96.7374 32.8205 97.0814C33.3325 97.4334 33.8925 97.6494 34.5005 97.7294C35.1245 97.8174 35.6925 97.7574 36.2045 97.5494C36.7245 97.3494 37.1365 97.0374 37.4405 96.6134C37.7525 96.1894 37.9085 95.6974 37.9085 95.1374C37.9085 94.5614 37.7525 94.0174 37.4405 93.5054C37.1285 93.0014 36.7125 92.5774 36.1925 92.2334C35.6725 91.8894 35.1085 91.6734 34.5005 91.5854C33.8685 91.4974 33.2965 91.5574 32.7845 91.7654C32.2725 91.9734 31.8645 92.2894 31.5605 92.7134C31.2645 93.1374 31.1165 93.6254 31.1165 94.1774ZM36.0845 113.734L28.5005 112.678L28.5005 109.75L35.3165 110.698C35.7885 110.77 36.2165 110.714 36.6005 110.53C36.9925 110.354 37.3005 110.086 37.5245 109.726C37.7565 109.374 37.8725 108.962 37.8725 108.49C37.8725 108.018 37.7565 107.57 37.5245 107.146C37.3005 106.73 36.9925 106.382 36.6005 106.102C36.2165 105.822 35.7885 105.646 35.3165 105.574L28.5005 104.626L28.5005 101.698L40.5005 103.366L40.5005 106.294L39.4325 106.15C39.8645 106.622 40.2045 107.158 40.4525 107.758C40.7085 108.366 40.8365 108.998 40.8365 109.654C40.8365 110.526 40.6205 111.29 40.1885 111.946C39.7645 112.602 39.1925 113.094 38.4725 113.422C37.7605 113.758 36.9645 113.862 36.0845 113.734ZM28.1885 120.066C28.1885 118.962 28.4725 117.994 29.0405 117.162C29.6085 116.338 30.3725 115.722 31.3325 115.314C32.2925 114.914 33.3525 114.794 34.5125 114.954C35.3845 115.074 36.2005 115.342 36.9605 115.758C37.7285 116.182 38.4005 116.71 38.9765 117.342C39.5605 117.974 40.0165 118.674 40.3445 119.442C40.6725 120.218 40.8365 121.018 40.8365 121.842C40.8365 122.778 40.6365 123.606 40.2365 124.326C39.8445 125.054 39.3045 125.642 38.6165 126.09C37.9285 126.538 37.1445 126.822 36.2645 126.942C35.3845 127.07 34.4645 126.998 33.5045 126.726L33.5045 117.966C33.0565 118.006 32.6525 118.13 32.2925 118.338C31.9405 118.546 31.6565 118.83 31.4405 119.19C31.2325 119.55 31.1245 119.978 31.1165 120.474C31.1085 120.986 31.2285 121.47 31.4765 121.926C31.7325 122.382 32.0765 122.778 32.5085 123.114L31.8125 126.006C30.7485 125.374 29.8765 124.526 29.1965 123.462C28.5245 122.398 28.1885 121.266 28.1885 120.066ZM35.7005 118.17L35.7005 124.074C36.1805 124.05 36.6125 123.922 36.9965 123.69C37.3885 123.466 37.7005 123.162 37.9325 122.778C38.1645 122.402 38.2805 121.974 38.2805 121.494C38.2805 121.006 38.1645 120.542 37.9325 120.102C37.7085 119.662 37.4005 119.274 37.0085 118.938C36.6245 118.602 36.1885 118.346 35.7005 118.17ZM40.5005 137.145L40.5005 140.253L22.5005 131.157L22.5005 128.049L28.5005 131.073L40.5005 128.433L40.5005 131.637L32.5085 133.089L40.5005 137.145Z" fill="white"/>
<rect x="113.5" y="44.5" width="27" height="38" rx="5" fill="url(#paint0_linear_453_1034)"/>
<rect x="113.75" y="44.75" width="26.5" height="37.5" rx="4.75" stroke="black" stroke-opacity="0.5" stroke-width="0.5"/>
<line x1="113.5" y1="58.25" x2="140.5" y2="58.25" stroke="black" stroke-opacity="0.5" stroke-width="0.5"/>
<line x1="113.5" y1="70.25" x2="135" y2="70.25" stroke="black" stroke-opacity="0.5" stroke-width="0.5"/>
<line x1="119.75" y1="70.5" x2="119.75" y2="82.5" stroke="black" stroke-opacity="0.5" stroke-width="0.5"/>
<line x1="119.75" y1="44.5" x2="119.75" y2="58.5" stroke="black" stroke-opacity="0.5" stroke-width="0.5"/>
<line x1="126.75" y1="44.5" x2="126.75" y2="58.5" stroke="black" stroke-opacity="0.5" stroke-width="0.5"/>
<line x1="134.75" y1="44.5" x2="134.75" y2="58.5" stroke="black" stroke-opacity="0.5" stroke-width="0.5"/>
<line x1="127.75" y1="70.5" x2="127.75" y2="82.5" stroke="black" stroke-opacity="0.5" stroke-width="0.5"/>
<line x1="134.75" y1="70.5" x2="134.75" y2="82.5" stroke="black" stroke-opacity="0.5" stroke-width="0.5"/>
<defs>
<filter id="filter0_d_453_1034" x="0" y="0" width="225" height="350" filterUnits="userSpaceOnUse" color-interpolation-filters="sRGB">
<feFlood flood-opacity="0" result="BackgroundImageFix"/>
<feColorMatrix in="SourceAlpha" type="matrix" values="0 0 0 0 0 0 0 0 0 0 0 0 0 0 0 0 0 0 127 0" result="hardAlpha"/>
<feOffset dx="4" dy="4"/>
<feGaussianBlur stdDeviation="4"/>
<feComposite in2="hardAlpha" operator="out"/>
<feColorMatrix type="matrix" values="0 0 0 0 0 0 0 0 0 0 0 0 0 0 0 0 0 0 0.15 0"/>
<feBlend mode="normal" in2="BackgroundImageFix" result="effect1_dropShadow_453_1034"/>
<feBlend mode="normal" in="SourceGraphic" in2="effect1_dropShadow_453_1034" result="shape"/>
</filter>
<linearGradient id="paint0_linear_453_1034" x1="112.064" y1="44.5" x2="150.683" y2="60.0196" gradientUnits="userSpaceOnUse">
<stop stop-color="#E2BF43"/>
<stop offset="0.367708" stop-color="#EEE6C9"/>
<stop offset="1" stop-color="#DAB944"/>
</linearGradient>
<clipPath id="clip0_453_1034">
<rect width="73" height="19" fill="white" transform="translate(132.5 310.5)"/>
</clipPath>
<clipPath id="clip1_453_1034">
<rect width="38" height="22" fill="white" transform="translate(149.5 51.5)"/>
</clipPath>
</defs>
</svg>
